<svg width="430" height="920" viewBox="0 0 430 920" fill="none" xmlns="http://www.w3.org/2000/svg">
<g clip-path="url(#clip0_2035_7344)">
<rect width="430" height="920" rx="50" fill="#F4EFEB"/>
<path d="M493.214 -170.89C592.299 -86.3928 599.886 60.1851 518.293 168.769C430.085 278.818 275.236 290.344 172.356 196.192C79.3276 107.385 68.8977 -41.1489 147.277 -143.467C237.282 -240.537 392.46 -251.935 493.214 -170.89Z" fill="#F4EFEB"/>
<path d="M148.045 -142.825C237.354 -239.103 391.055 -250.721 491.409 -171.052L492.587 -170.111C591.184 -86.0095 598.811 59.9298 517.51 168.145C429.667 277.736 275.498 289.214 173.046 195.468C80.4038 107.03 69.9992 -40.9063 148.045 -142.825Z" stroke="black" stroke-opacity="0.02" stroke-width="2"/>
<path d="M495.388 -148.355C582.62 -62.6005 579.977 75.268 496.288 171.619C406.302 268.904 260.423 269.442 170.276 174.388C89.0059 84.996 89.1159 -54.894 169.376 -145.586C260.182 -230.589 406.361 -230.985 495.388 -148.355Z" fill="#F4EFEB"/>
<path d="M170.097 -144.891C260.521 -229.499 406.061 -229.877 494.686 -147.642L495.7 -146.64C581.46 -61.2468 578.603 75.3046 495.552 170.941C405.963 267.797 260.764 268.334 171.015 173.715C90.1044 84.7181 90.1972 -54.574 170.097 -144.891Z" stroke="black" stroke-opacity="0.02" stroke-width="2"/>
<path d="M457.958 -154.03C547.982 -88.2928 563.893 36.3536 501.228 134.324C433.01 233.972 301.563 253.815 207.678 180.08C122.548 110.272 104.084 -15.8606 164.409 -108.274C234.996 -196.958 366.732 -216.712 457.958 -154.03Z" fill="#F4EFEB"/>
<path d="M165.223 -107.692C235.222 -195.592 365.596 -215.422 456.326 -153.934L457.392 -153.206C546.899 -87.8261 562.801 36.1814 500.399 133.763C432.511 232.926 301.74 252.667 208.313 179.307C123.594 109.837 105.201 -15.702 165.223 -107.692Z" stroke="black" stroke-opacity="0.02" stroke-width="2"/>
<path d="M401.221 -162.157C495.222 -126.76 539.059 -22.3625 508.243 77.7978C473.011 180.752 363.655 229.641 264.375 188.23C173.643 148.12 127.232 43.0463 157.354 -51.7254C197.285 -145.73 306.913 -194.611 401.221 -162.157Z" fill="#F4EFEB"/>
<path d="M158.294 -51.381C197.728 -144.15 305.407 -192.725 398.695 -161.954L400.868 -161.221C494.301 -126.038 537.969 -22.2314 507.287 77.5001C472.234 179.884 363.511 228.485 264.78 187.315C174.536 147.421 128.351 42.902 158.294 -51.381Z" stroke="black" stroke-opacity="0.02" stroke-width="2"/>
<path d="M396.812 -150.93C483.691 -118.215 523.869 -20.8301 494.958 72.8823C461.948 169.223 360.531 215.327 268.789 177.012C184.954 139.881 142.396 41.874 170.643 -46.8004C207.968 -134.796 309.637 -180.894 396.812 -150.93Z" fill="#F4EFEB"/>
<path d="M171.583 -46.4567C208.436 -133.272 308.265 -179.048 394.453 -150.669L396.487 -149.984C482.769 -117.477 522.779 -20.7024 494.004 72.5814C461.17 168.366 360.377 214.166 269.194 176.098C185.855 139.186 143.511 41.739 171.583 -46.4567Z" stroke="black" stroke-opacity="0.02" stroke-width="2"/>
<path d="M429.106 -101.786C491.848 -50.9565 499.18 39.3689 450.729 107.423C398.218 176.468 302.757 185.607 237.496 128.871C178.418 75.3034 169.294 -16.1915 215.872 -80.3385C269.728 -141.4 365.395 -150.464 429.106 -101.786Z" fill="#F4EFEB"/>
<path d="M216.656 -79.7157C269.754 -139.876 363.736 -149.195 427.009 -102.114L428.498 -100.991C490.749 -50.5406 498.095 39.1483 449.93 106.822C397.777 175.391 302.997 184.475 238.168 128.13C179.481 74.9164 170.405 -15.9817 216.656 -79.7157Z" stroke="black" stroke-opacity="0.02" stroke-width="2"/>
<path d="M412.513 -84.6628C466.091 -41.258 472.412 35.7997 431.114 93.8193C386.353 152.681 304.897 160.409 249.166 111.964C198.714 66.2261 190.863 -11.8304 230.565 -66.5182C276.48 -118.569 358.111 -126.233 412.513 -84.6628Z" fill="#F4EFEB"/>
<path d="M231.349 -65.8957C276.567 -117.114 356.67 -124.987 410.636 -84.8257L411.906 -83.8679C464.998 -40.8364 471.326 35.5961 430.301 93.2356C385.895 151.605 305.132 159.274 249.838 111.223C199.775 65.8383 191.975 -11.622 231.349 -65.8957Z" stroke="black" stroke-opacity="0.02" stroke-width="2"/>
<path d="M405.61 -72.3438C452.836 -34.0843 458.408 33.8387 422.006 84.9804C382.551 136.865 310.751 143.677 261.627 100.974C217.155 60.6583 210.235 -8.14515 245.231 -56.3501C285.703 -102.23 357.657 -108.986 405.61 -72.3438Z" fill="#F4EFEB"/>
<path d="M246.015 -55.7278C285.832 -100.824 356.367 -107.756 403.884 -72.3931L404.981 -71.5664C451.736 -33.6882 457.327 33.6114 421.207 84.3788C382.11 135.786 310.992 142.546 262.298 100.234C218.216 60.2708 211.347 -7.93691 246.015 -55.7278Z" stroke="black" stroke-opacity="0.02" stroke-width="2"/>
<path d="M287.535 -77.1639C386.621 7.33354 394.208 153.911 312.614 262.495C224.406 372.544 69.558 384.071 -33.3224 289.918C-126.351 201.111 -136.78 52.5774 -58.4012 -49.7407C31.6042 -146.81 186.782 -158.208 287.535 -77.1639Z" fill="#F4EFEB"/>
<path d="M-57.6333 -49.0986C31.6757 -145.377 185.377 -156.994 285.73 -77.3257L286.908 -76.3849C385.506 7.71679 393.132 153.656 311.832 261.872C223.989 371.463 69.8202 382.94 -32.6322 289.195C-125.274 200.756 -135.679 52.82 -57.6333 -49.0986Z" stroke="black" stroke-opacity="0.02" stroke-width="2"/>
<path d="M289.709 -54.6287C376.942 31.1261 374.299 168.995 290.609 265.345C200.624 362.631 54.7444 363.169 -35.4024 268.114C-116.672 178.723 -116.562 38.8326 -36.3023 -51.8595C54.5037 -136.862 200.683 -137.258 289.709 -54.6287Z" fill="#F4EFEB"/>
<path d="M-35.5815 -51.1649C54.8429 -135.773 200.383 -136.151 289.008 -53.9152L290.021 -52.9133C375.782 32.4798 372.925 169.031 289.873 264.668C200.284 361.523 55.0857 362.06 -34.6629 267.442C-115.574 178.445 -115.481 39.1525 -35.5815 -51.1649Z" stroke="black" stroke-opacity="0.02" stroke-width="2"/>
<path d="M252.28 -60.3038C342.304 5.43347 358.215 130.08 295.549 228.05C227.332 327.698 95.8852 347.541 2.00011 273.806C-83.1306 203.998 -101.594 77.8657 -41.2694 -14.5478C29.3177 -103.232 161.054 -122.985 252.28 -60.3038Z" fill="#F4EFEB"/>
<path d="M-40.4547 -13.9661C29.544 -101.866 159.917 -121.695 250.648 -60.2073L251.714 -59.4795C341.221 5.90018 357.123 129.908 294.721 227.489C226.833 326.652 96.0613 346.393 2.63437 273.033C-82.084 203.563 -100.478 78.0244 -40.4547 -13.9661Z" stroke="black" stroke-opacity="0.02" stroke-width="2"/>
<path d="M195.543 -68.431C289.543 -33.0341 333.38 71.3638 302.565 171.524C267.332 274.479 157.977 323.367 58.6973 281.956C-32.0348 241.846 -78.4458 136.773 -48.3244 42.0009C-8.39356 -52.0041 101.235 -100.885 195.543 -68.431Z" fill="#F4EFEB"/>
<path d="M-47.3845 42.3453C-7.94975 -50.4233 99.7292 -98.9987 193.017 -68.2273L195.19 -67.495C288.623 -32.3119 332.291 71.4949 301.609 171.226C266.556 273.611 157.833 322.211 59.1022 281.041C-31.1417 241.147 -77.3273 136.628 -47.3845 42.3453Z" stroke="black" stroke-opacity="0.02" stroke-width="2"/>
<path d="M191.134 -57.204C278.013 -24.4891 318.191 72.8962 289.28 166.609C256.27 262.949 154.853 309.053 63.1107 270.739C-20.7245 233.607 -63.2825 135.6 -35.0351 46.9259C2.28975 -41.0698 103.959 -87.1679 191.134 -57.204Z" fill="#F4EFEB"/>
<path d="M-34.0949 47.2696C2.75819 -39.5461 102.587 -85.3217 188.775 -56.9429L190.809 -56.2581C277.09 -23.7509 317.101 73.0239 288.325 166.308C255.492 262.092 154.699 307.892 63.5159 269.824C-19.8228 232.912 -62.1675 135.465 -34.0949 47.2696Z" stroke="black" stroke-opacity="0.02" stroke-width="2"/>
<path d="M223.428 -8.05972C286.17 42.7698 293.502 133.095 245.051 201.15C192.54 270.194 97.0788 279.333 31.8178 222.597C-27.2599 169.03 -36.384 77.5348 10.1942 13.3878C64.0502 -47.6736 159.717 -56.7372 223.428 -8.05972Z" fill="#F4EFEB"/>
<path d="M10.9779 14.0106C64.0754 -46.1494 158.058 -55.469 221.331 -8.38799L222.82 -7.26503C285.07 43.1857 292.416 132.875 244.252 200.548C192.098 269.118 97.3185 278.201 32.4898 221.856C-26.1974 168.643 -35.2729 77.7446 10.9779 14.0106Z" stroke="black" stroke-opacity="0.02" stroke-width="2"/>
<path d="M206.835 9.06351C260.412 52.4683 266.734 129.526 225.436 187.546C180.675 246.407 99.2189 254.135 43.4879 205.69C-6.96434 159.952 -14.8154 81.8959 24.8869 27.2081C70.8017 -24.8424 152.433 -32.5062 206.835 9.06351Z" fill="#F4EFEB"/>
<path d="M25.6709 27.8306C70.8885 -23.3876 150.992 -31.2609 204.958 8.90061L206.228 9.85838C259.32 52.8899 265.648 129.322 224.623 186.962C180.217 245.331 99.4536 253 44.1593 204.949C-5.90332 159.565 -13.7033 82.1043 25.6709 27.8306Z" stroke="black" stroke-opacity="0.02" stroke-width="2"/>
<path d="M199.932 21.3838C247.158 59.6432 252.73 127.566 216.328 178.708C176.872 230.592 105.073 237.404 55.9483 194.702C11.4769 154.386 4.55658 85.5824 39.5524 37.3775C80.0243 -8.50279 151.979 -15.2581 199.932 21.3838Z" fill="#F4EFEB"/>
<path d="M40.3365 37.9997C80.1537 -7.09614 150.689 -14.028 198.206 21.3344L199.302 22.1611C246.058 60.0394 251.649 127.339 215.529 178.106C176.432 229.514 105.314 236.274 56.6201 193.961C12.5381 153.998 5.66858 85.7906 40.3365 37.9997Z" stroke="black" stroke-opacity="0.02" stroke-width="2"/>
<path d="M718.418 -105.802C817.503 -21.3049 825.09 125.273 743.497 233.857C655.289 343.905 500.44 355.432 397.56 261.28C304.532 172.473 294.102 23.939 372.481 -78.3791C462.487 -175.449 617.664 -186.847 718.418 -105.802Z" fill="#F4EFEB"/>
<path d="M373.249 -77.737C462.558 -174.015 616.259 -185.633 716.613 -105.964L717.791 -105.023C816.388 -20.9216 824.015 125.018 742.714 233.233C654.871 342.824 500.703 354.302 398.25 260.556C305.608 172.117 295.203 24.1816 373.249 -77.737Z" stroke="black" stroke-opacity="0.02" stroke-width="2"/>
<path d="M720.592 -83.2669C807.825 2.48787 805.181 140.356 721.492 236.707C631.507 333.993 485.627 334.531 395.48 239.476C314.21 150.084 314.32 10.1944 394.58 -80.4977C485.386 -165.5 631.565 -165.896 720.592 -83.2669Z" fill="#F4EFEB"/>
<path d="M395.301 -79.8031C485.725 -164.411 631.265 -164.789 719.891 -82.5534L720.904 -81.5515C806.664 3.84162 803.807 140.393 720.756 236.03C631.167 332.885 485.968 333.422 396.219 238.804C315.308 149.806 315.401 10.5143 395.301 -79.8031Z" stroke="black" stroke-opacity="0.02" stroke-width="2"/>
<path d="M683.162 -88.9422C773.186 -23.205 789.097 101.442 726.432 199.412C658.214 299.06 526.768 318.902 432.882 245.168C347.752 175.36 329.288 49.2273 389.613 -43.1862C460.2 -131.87 591.936 -151.624 683.162 -88.9422Z" fill="#F4EFEB"/>
<path d="M390.428 -42.6046C460.426 -130.504 590.8 -150.334 681.53 -88.8458L682.596 -88.1179C772.104 -22.7383 788.006 101.269 725.603 198.851C657.715 298.014 526.944 317.755 433.517 244.395C348.798 174.925 330.405 49.3859 390.428 -42.6046Z" stroke="black" stroke-opacity="0.02" stroke-width="2"/>
<path d="M626.425 -97.069C720.426 -61.672 764.263 42.7259 733.447 142.886C698.215 245.841 588.859 294.729 489.58 253.318C398.848 213.208 352.437 108.135 382.558 13.363C422.489 -80.642 532.117 -129.523 626.425 -97.069Z" fill="#F4EFEB"/>
<path d="M383.498 13.7073C422.933 -79.0613 530.612 -127.637 623.899 -96.8652L626.073 -96.133C719.505 -60.9498 763.173 42.8569 732.491 142.588C697.438 244.973 588.715 293.573 489.985 252.403C399.741 212.509 353.555 107.99 383.498 13.7073Z" stroke="black" stroke-opacity="0.02" stroke-width="2"/>
<path d="M622.016 -85.8427C708.895 -53.1277 749.073 44.2575 720.162 137.97C687.152 234.311 585.735 280.415 493.993 242.1C410.158 204.968 367.6 106.962 395.847 18.2872C433.172 -69.7085 534.841 -115.807 622.016 -85.8427Z" fill="#F4EFEB"/>
<path d="M396.787 18.6309C433.641 -68.1847 533.469 -113.96 619.657 -85.5816L621.691 -84.8968C707.973 -52.3896 747.983 44.3853 719.208 137.669C686.375 233.454 585.581 279.254 494.398 241.185C411.059 204.274 368.715 106.827 396.787 18.6309Z" stroke="black" stroke-opacity="0.02" stroke-width="2"/>
<path d="M654.31 -36.6979C717.052 14.1316 724.385 104.457 675.933 172.511C623.422 241.556 527.961 250.695 462.7 193.959C403.622 140.392 394.498 48.8967 441.077 -15.2503C494.932 -76.3118 590.599 -85.3754 654.31 -36.6979Z" fill="#F4EFEB"/>
<path d="M441.86 -14.6276C494.958 -74.7876 588.94 -84.1072 652.213 -37.0262L653.703 -35.9032C715.953 14.5475 723.299 104.236 675.134 171.91C622.981 240.48 528.201 249.563 463.372 193.218C404.685 140.005 395.609 49.1065 441.86 -14.6276Z" stroke="black" stroke-opacity="0.02" stroke-width="2"/>
<path d="M637.718 -19.5749C691.295 23.8299 697.616 100.888 656.318 158.907C611.557 217.769 530.101 225.497 474.37 177.052C423.918 131.314 416.067 53.2575 455.769 -1.43028C501.684 -53.4808 583.315 -61.1446 637.718 -19.5749Z" fill="#F4EFEB"/>
<path d="M456.553 -0.807849C501.771 -52.026 581.874 -59.8994 635.84 -19.7378L637.11 -18.7801C690.202 24.2515 696.53 100.684 655.505 158.323C611.1 216.692 530.336 224.362 475.042 176.311C424.979 130.926 417.179 53.4659 456.553 -0.807849Z" stroke="black" stroke-opacity="0.02" stroke-width="2"/>
<path d="M630.814 -7.25541C678.04 31.0041 683.612 98.9271 647.21 150.069C607.755 201.953 535.955 208.765 486.831 166.063C442.359 125.747 435.439 56.9432 470.435 8.73831C510.907 -37.1419 582.861 -43.8973 630.814 -7.25541Z" fill="#F4EFEB"/>
<path d="M471.219 9.36059C511.036 -35.7353 581.571 -42.6671 629.089 -7.30476L630.185 -6.47804C676.94 31.4002 682.531 98.6998 646.411 149.467C607.315 200.875 536.196 207.635 487.502 165.322C443.42 125.359 436.551 57.1515 471.219 9.36059Z" stroke="black" stroke-opacity="0.02" stroke-width="2"/>
<path d="M337.052 -83.1781C466.813 -72.2318 557.945 47.5966 554.341 189.894C546.193 337.495 426.612 442.326 288.161 425.509C160.841 407.186 66.2583 287.441 70.8722 152.437C88.0075 14.7558 207.931 -90.1676 337.052 -83.1781Z" fill="#F4EFEB"/>
<path d="M71.8703 152.513C88.9019 15.8638 207.532 -88.3205 335.491 -82.2562L336.968 -82.1814C465.582 -71.3318 556.224 47.0472 553.379 188.207L553.342 189.839C545.223 336.906 426.122 441.247 288.303 424.519C161.547 406.276 67.293 287.036 71.8703 152.513Z" stroke="black" stroke-opacity="0.02" stroke-width="2"/>
<path d="M351.884 -65.3736C472.71 -46.0848 550.452 72.6263 538.05 205.821C521.056 343.673 402.42 433.667 273.829 408.269C155.758 382.231 74.7787 263.358 87.6637 137.075C112.445 9.14952 231.408 -80.9072 351.884 -65.3736Z" fill="#F4EFEB"/>
<path d="M88.6536 137.223C113.268 10.2893 230.945 -79.1386 350.358 -64.5575L351.763 -64.3803C471.933 -45.1786 549.415 72.9395 537.055 205.716C520.116 343.023 401.997 432.552 274.038 407.292C156.523 381.377 75.837 263.03 88.6536 137.223Z" stroke="black" stroke-opacity="0.02" stroke-width="2"/>
<path d="M318.076 -47.2207C429.576 -46.6455 514.785 49.4483 520.465 171.114C522.589 297.613 426.909 395.143 307.625 390.146C197.756 383.11 109.604 287.321 105.236 171.811C111.398 53.1691 207.366 -44.4629 318.076 -47.2207Z" fill="#F4EFEB"/>
<path d="M106.237 171.806C112.398 53.6737 207.954 -43.4596 318.064 -46.2195L318.064 -46.2205C428.919 -45.6484 513.802 49.9059 519.464 171.164C521.567 297.123 426.323 394.117 307.674 389.146L307.673 389.147C198.381 382.136 110.606 286.827 106.237 171.806Z" stroke="black" stroke-opacity="0.02" stroke-width="2"/>
<path d="M267.104 -19.2981C364.264 -46.9309 460.509 14.8261 493.427 118.804C524.363 227.865 463.528 336.504 358.578 362.27C261.352 383.894 162.617 323.143 132.255 224.168C110.336 119.823 171.398 11.023 267.104 -19.2981Z" fill="#F4EFEB"/>
<path d="M133.216 223.884C111.511 120.436 171.75 12.6541 266.263 -17.9804L267.348 -18.3283C363.895 -45.7868 459.685 15.551 492.479 119.131C523.25 227.659 462.72 335.66 358.39 361.285C261.71 382.788 163.453 322.386 133.216 223.884Z" stroke="black" stroke-opacity="0.02" stroke-width="2"/>
<path d="M270.015 -7.05823C359.814 -32.5978 449.011 25.4495 479.746 122.782C508.662 224.862 452.686 326.264 355.676 350.033C265.8 369.954 174.301 312.839 145.945 220.193C125.384 122.551 181.569 20.9996 270.015 -7.05823Z" fill="#F4EFEB"/>
<path d="M146.906 219.91C126.631 123.508 181.535 23.3604 268.234 -5.43L270.289 -6.0971C359.454 -31.4385 448.186 26.1725 478.798 123.106C507.554 224.666 451.867 325.422 355.488 349.049C266.168 368.847 175.141 312.093 146.906 219.91Z" stroke="black" stroke-opacity="0.02" stroke-width="2"/>
<path d="M324.827 14.8578C405.443 19.517 463.768 91.7277 463.7 179.263C460.896 270.131 388.355 336.483 302.262 328.354C223.047 319.12 162.584 247.016 163.389 163.949C171.916 79.0356 244.669 12.6208 324.827 14.8578Z" fill="#F4EFEB"/>
<path d="M164.389 163.997C172.824 80.2481 244.093 14.6685 322.933 15.818L324.797 15.8576C404.759 20.4958 462.763 92.1502 462.699 179.258C459.9 269.571 387.839 335.418 302.379 327.361C223.724 318.192 163.609 246.576 164.389 163.997Z" stroke="black" stroke-opacity="0.02" stroke-width="2"/>
<path d="M321.221 39.5843C390.061 43.563 439.872 105.126 439.822 179.748C437.436 257.212 375.496 313.77 301.979 306.833C234.335 298.955 182.698 237.482 183.378 166.669C190.652 94.2821 252.771 37.6706 321.221 39.5843Z" fill="#F4EFEB"/>
<path d="M184.378 166.717C191.57 95.3988 252.359 39.5654 319.6 40.5502L321.191 40.5838C389.378 44.5418 438.868 105.55 438.821 179.744C436.439 256.65 374.983 312.705 302.097 305.84C235.011 298.026 183.723 237.041 184.378 166.717Z" stroke="black" stroke-opacity="0.02" stroke-width="2"/>
<path d="M322.732 54.2837C383.411 57.7907 427.317 112.056 427.273 177.832C425.17 246.113 370.573 295.967 305.771 289.852C246.145 282.907 200.63 228.722 201.229 166.303C207.641 102.497 262.396 52.5969 322.732 54.2837Z" fill="#F4EFEB"/>
<path d="M202.229 166.351C208.614 103.062 262.928 53.6297 322.672 55.2832L322.672 55.2823C382.707 58.7522 426.304 112.456 426.273 177.804C424.187 245.539 370.067 294.902 305.889 288.858C246.821 281.979 201.654 228.281 202.229 166.351Z" stroke="black" stroke-opacity="0.02" stroke-width="2"/>
<path d="M-119.866 -35.013C9.8953 -24.0667 101.027 95.7616 97.4232 238.059C89.2753 385.66 -30.3059 490.491 -168.757 473.674C-296.076 455.351 -390.659 335.606 -386.045 200.602C-368.91 62.9208 -248.986 -42.0025 -119.866 -35.013Z" fill="#F4EFEB"/>
<path d="M-385.047 200.678C-368.016 64.0289 -249.386 -40.1555 -121.426 -34.0912L-119.95 -34.0163C8.66461 -23.1667 99.3069 95.2122 96.4613 236.372L96.4243 238.004C88.3059 385.071 -30.7959 489.412 -168.614 472.684C-295.371 454.441 -389.625 335.201 -385.047 200.678Z" stroke="black" stroke-opacity="0.02" stroke-width="2"/>
<path d="M-105.033 -17.209C15.7916 2.07974 93.5339 120.791 81.1322 253.985C64.1385 391.838 -54.498 481.832 -183.089 456.433C-301.16 430.396 -382.139 311.523 -369.254 185.239C-344.473 57.3141 -225.51 -32.7426 -105.033 -17.209Z" fill="#F4EFEB"/>
<path d="M-368.264 185.387C-343.65 58.4538 -225.973 -30.974 -106.56 -16.3929L-105.155 -16.2158C15.0154 2.98591 92.4975 121.104 80.1369 253.881C63.1977 391.188 -54.9207 480.717 -182.88 455.456C-300.395 429.541 -381.081 311.195 -368.264 185.387Z" stroke="black" stroke-opacity="0.02" stroke-width="2"/>
<path d="M-138.842 0.944827C-27.3411 1.52005 57.8677 97.6138 63.5471 219.28C65.672 345.779 -30.0089 443.308 -149.292 438.311C-259.162 431.276 -347.313 335.486 -351.681 219.976C-345.52 101.335 -249.552 3.70266 -138.842 0.944827Z" fill="#F4EFEB"/>
<path d="M-350.68 219.971C-344.52 101.839 -248.963 4.70595 -138.853 1.946L-138.853 1.94503C-27.9987 2.51712 56.8847 98.0715 62.5467 219.33C64.6491 345.288 -30.5947 442.282 -149.243 437.312L-149.244 437.312C-258.536 430.302 -346.311 334.992 -350.68 219.971Z" stroke="black" stroke-opacity="0.02" stroke-width="2"/>
<path d="M-189.814 28.8662C-92.6538 1.23337 3.59103 62.9904 36.5094 166.968C67.4459 276.03 6.61066 384.669 -98.3391 410.434C-195.565 432.058 -294.301 371.307 -324.662 272.332C-346.581 167.987 -285.52 59.1873 -189.814 28.8662Z" fill="#F4EFEB"/>
<path d="M-323.702 272.049C-345.406 168.601 -285.167 60.8184 -190.654 30.1839L-189.569 29.836C-93.022 2.3775 2.76718 63.7153 35.5616 167.295C66.3328 275.823 5.8029 383.824 -98.5274 409.45C-195.207 430.952 -293.465 370.55 -323.702 272.049Z" stroke="black" stroke-opacity="0.02" stroke-width="2"/>
<path d="M-186.903 41.1068C-97.1037 15.5673 -7.90641 73.6145 22.8286 170.947C51.7443 273.027 -4.23164 374.429 -101.241 398.198C-191.118 418.119 -282.616 361.004 -310.972 268.358C-331.534 170.716 -275.349 69.1647 -186.903 41.1068Z" fill="#F4EFEB"/>
<path d="M-310.012 268.075C-330.287 171.673 -275.383 71.5254 -188.683 42.735L-186.629 42.0679C-97.4634 16.7265 -8.73182 74.3376 21.8802 171.271C50.6363 272.831 -5.05034 373.587 -101.429 397.214C-190.75 417.012 -281.777 360.258 -310.012 268.075Z" stroke="black" stroke-opacity="0.02" stroke-width="2"/>
<path d="M-132.09 63.0228C-51.4745 67.682 6.85007 139.893 6.78258 227.428C3.97868 318.296 -68.563 384.648 -154.656 376.519C-233.87 367.285 -294.333 295.181 -293.529 212.114C-285.002 127.201 -212.249 60.7859 -132.09 63.0228Z" fill="#F4EFEB"/>
<path d="M-292.529 212.162C-284.093 128.413 -212.824 62.8335 -133.984 63.9831L-132.121 64.0227C-52.1589 68.6608 5.84601 140.315 5.78141 227.423C2.9821 317.736 -69.0788 383.583 -154.538 375.526C-233.194 366.357 -293.309 294.741 -292.529 212.162Z" stroke="black" stroke-opacity="0.02" stroke-width="2"/>
<path d="M171.729 11.8503C301.49 22.7965 392.621 142.625 389.017 284.922C380.87 432.524 261.288 537.354 122.838 520.538C-4.482 502.214 -99.0649 382.469 -94.4511 247.466C-77.3158 109.784 42.6082 4.86073 171.729 11.8503Z" fill="#F4EFEB"/>
<path d="M-93.4529 247.541C-76.4213 110.892 42.2086 6.70779 170.168 12.7721L171.645 12.847C300.259 23.6965 390.901 142.076 388.056 283.235L388.019 284.867C379.9 431.934 260.798 536.275 122.98 519.547C-3.7765 501.305 -98.0303 382.064 -93.4529 247.541Z" stroke="black" stroke-opacity="0.02" stroke-width="2"/>
<path d="M186.561 29.6545C307.386 48.9433 385.128 167.654 372.726 300.849C355.733 438.701 237.096 528.695 108.506 503.297C-9.56538 477.259 -90.545 358.386 -77.6601 232.103C-52.879 104.178 66.0844 14.1209 186.561 29.6545Z" fill="#F4EFEB"/>
<path d="M-76.6701 232.251C-52.0556 105.317 65.6212 15.8895 185.034 30.4706L186.439 30.6477C306.61 49.8494 384.092 167.968 371.731 300.744C354.792 438.051 236.673 527.58 108.715 502.32C-8.80095 476.405 -89.4867 358.058 -76.6701 232.251Z" stroke="black" stroke-opacity="0.02" stroke-width="2"/>
<path d="M152.753 47.8084C264.253 48.3836 349.462 144.477 355.141 266.143C357.266 392.642 261.585 490.172 142.302 485.175C32.4323 478.139 -55.719 382.35 -60.0869 266.84C-53.9253 148.198 42.0427 50.5662 152.753 47.8084Z" fill="#F4EFEB"/>
<path d="M-59.0858 266.835C-52.9253 148.703 42.631 51.5695 152.741 48.8095L152.741 48.8086C263.596 49.3806 348.479 144.935 354.141 266.193C356.243 392.152 261 489.146 142.351 484.175L142.35 484.176C33.0581 477.165 -54.7168 381.856 -59.0858 266.835Z" stroke="black" stroke-opacity="0.02" stroke-width="2"/>
<path d="M101.78 75.73C198.94 48.0971 295.185 109.854 328.104 213.832C359.04 322.893 298.205 431.533 193.255 457.298C96.0289 478.922 -2.70646 418.171 -33.0681 319.196C-54.9869 214.851 6.07468 106.051 101.78 75.73Z" fill="#F4EFEB"/>
<path d="M-32.1077 318.912C-53.8121 215.464 6.42691 107.682 100.94 77.0477L102.025 76.6998C198.572 49.2413 294.361 110.579 327.156 214.159C357.927 322.687 297.397 430.688 193.067 456.313C96.387 477.816 -1.87035 417.414 -32.1077 318.912Z" stroke="black" stroke-opacity="0.02" stroke-width="2"/>
<path d="M104.692 87.9703C194.491 62.4308 283.688 120.478 314.423 217.81C343.339 319.891 287.363 421.293 190.353 445.061C100.476 464.982 8.97813 407.868 -19.3781 315.221C-39.9394 217.58 16.2455 116.028 104.692 87.9703Z" fill="#F4EFEB"/>
<path d="M-18.4176 314.939C-38.6927 218.536 16.2117 118.389 102.911 89.5986L104.965 88.9315C194.131 63.5901 282.862 121.201 313.474 218.134C342.231 319.695 286.544 420.451 190.165 444.078C100.844 463.875 9.81738 407.121 -18.4176 314.939Z" stroke="black" stroke-opacity="0.02" stroke-width="2"/>
<path d="M159.504 109.887C240.12 114.546 298.444 186.757 298.377 274.291C295.573 365.159 223.031 431.512 136.939 423.383C57.7239 414.149 -2.73905 342.045 -1.93435 258.978C6.59263 174.064 79.3454 107.65 159.504 109.887Z" fill="#F4EFEB"/>
<path d="M-0.934445 259.026C7.50112 175.277 78.7701 109.697 157.61 110.847L159.473 110.886C239.435 115.525 297.44 187.179 297.376 274.287C294.576 364.599 222.515 430.447 137.056 422.39C58.4004 413.221 -1.71449 341.605 -0.934445 259.026Z" stroke="black" stroke-opacity="0.02" stroke-width="2"/>
<path d="M155.898 134.613C224.738 138.592 274.549 200.155 274.499 274.777C272.112 352.241 210.173 408.799 136.656 401.861C69.0117 393.983 17.3747 332.511 18.0546 261.697C25.3286 189.311 87.4481 132.699 155.898 134.613Z" fill="#F4EFEB"/>
<path d="M19.0544 261.746C26.2464 190.428 87.0362 134.594 154.277 135.579L155.868 135.613C224.055 139.571 273.545 200.579 273.498 274.773C271.116 351.678 209.659 407.734 136.774 400.868C69.6874 393.055 18.3995 332.07 19.0544 261.746Z" stroke="black" stroke-opacity="0.02" stroke-width="2"/>
<path d="M157.408 149.313C218.087 152.82 261.994 207.085 261.95 272.862C259.846 341.142 205.249 390.996 140.447 384.881C80.8217 377.937 35.3059 323.751 35.9052 261.332C42.3169 197.527 97.0725 147.626 157.408 149.313Z" fill="#F4EFEB"/>
<path d="M36.9051 261.38C43.2907 198.092 97.6042 148.659 157.348 150.313L157.348 150.312C217.383 153.782 260.98 207.486 260.95 272.833C258.863 340.568 204.743 389.931 140.565 383.887C81.4971 377.008 36.3304 323.31 36.9051 261.38Z" stroke="black" stroke-opacity="0.02" stroke-width="2"/>
<path d="M347.757 66.3865C501.097 79.3266 610.5 200.7 608.417 343.126C601.05 490.793 461.493 593.935 297.805 574.984C147.233 554.694 33.758 433.352 37.1446 298.245C55.2711 160.647 195.232 57.4181 347.757 66.3865Z" fill="#F4EFEB"/>
<path d="M38.1423 298.326C56.2145 161.37 195.604 58.4539 347.673 67.3832L349.462 67.5394C501.356 81.226 609.473 201.777 607.416 343.092C600.076 490.054 461.153 592.889 297.92 573.991L297.919 573.992C147.795 553.753 34.8035 432.81 38.1423 298.326Z" stroke="black" stroke-opacity="0.02" stroke-width="2"/>
<path d="M365.537 84.4393C508.457 105.596 602.037 225.647 589.43 358.824C571.473 496.595 432.804 584.895 280.624 557.502C140.853 529.629 43.4484 409.368 56.7316 283.118C84.0322 155.406 223.086 67.0477 365.537 84.4393Z" fill="#F4EFEB"/>
<path d="M57.7222 283.261C84.813 156.672 222.313 68.7805 363.735 85.2308L365.374 85.4262C507.789 106.508 600.977 226.101 588.433 358.726C570.558 495.799 432.547 583.832 280.819 556.52L280.818 556.521C141.491 528.728 44.5364 408.896 57.7222 283.261Z" stroke="black" stroke-opacity="0.02" stroke-width="2"/>
<path d="M325.906 102.1C457.533 104.378 559.582 201.895 568.142 323.805C572.58 450.499 461.124 546.695 320.242 539.871C190.441 531.151 84.9233 433.893 78.005 318.167C83.4683 199.467 195.262 103.173 325.906 102.1Z" fill="#F4EFEB"/>
<path d="M79.0058 318.181C84.4487 200.577 194.869 104.919 324.407 103.117L325.932 103.101C457.037 105.381 558.611 202.491 567.143 323.837C571.547 449.828 460.696 545.674 320.272 538.872L320.271 538.873C190.922 530.174 85.9188 433.283 79.0058 318.181Z" stroke="black" stroke-opacity="0.02" stroke-width="2"/>
<path d="M266.162 129.28C380.431 103.094 494.984 166.399 535.428 271.013C573.61 380.687 503.456 488.538 379.963 512.735C265.524 532.904 148.047 470.569 110.697 371.003C83.2318 266.189 153.651 158.18 266.162 129.28Z" fill="#F4EFEB"/>
<path d="M111.672 370.777C84.3914 266.557 154.418 159.028 266.459 130.235L266.46 130.235C380.208 104.168 494.206 167.171 534.467 271.279C572.418 380.31 502.719 487.66 379.715 511.77C265.736 531.858 148.841 469.773 111.672 370.777Z" stroke="black" stroke-opacity="0.02" stroke-width="2"/>
<path d="M269.786 141.582C375.398 117.379 481.574 176.862 519.34 274.789C555.03 377.442 490.502 478.121 376.351 500.44C270.562 519.015 161.684 460.432 126.798 367.233C101.037 269.152 165.81 168.326 269.786 141.582Z" fill="#F4EFEB"/>
<path d="M127.772 367.006C102.392 270.263 165.597 170.723 267.69 143.168L270.083 142.537C375.164 118.456 480.793 177.624 518.379 275.056C553.842 377.076 489.752 477.245 376.105 499.475C270.785 517.968 162.48 459.645 127.772 367.006Z" stroke="black" stroke-opacity="0.02" stroke-width="2"/>
<path d="M334.822 164.362C430.055 170.257 500.004 243.451 501.26 331.097C499.337 422.04 414.719 487.371 312.968 477.918C219.32 467.464 146.848 394.344 146.53 311.182C155.3 226.29 240.167 160.899 334.822 164.362Z" fill="#F4EFEB"/>
<path d="M147.53 311.242C156.196 227.649 239.263 162.933 332.585 165.293L334.792 165.362C429.511 171.237 499.003 244.012 500.26 331.087C498.342 421.31 414.368 486.326 313.073 476.923C219.859 466.518 147.878 393.779 147.53 311.242Z" stroke="black" stroke-opacity="0.02" stroke-width="2"/>
<path d="M330.942 189.066C412.264 194.1 472.002 256.502 473.081 331.22C471.446 408.747 399.194 464.433 312.306 456.365C232.337 447.445 170.445 385.105 170.167 314.211C177.649 241.842 250.113 186.105 330.942 189.066Z" fill="#F4EFEB"/>
<path d="M171.166 314.27C178.554 243.104 249.401 187.988 329.029 190.006L330.912 190.066C411.721 195.08 470.999 257.064 472.081 331.208C470.464 407.42 399.95 462.529 314.416 455.546L312.392 455.369C232.864 446.49 171.475 384.533 171.166 314.27Z" stroke="black" stroke-opacity="0.02" stroke-width="2"/>
<path d="M332.949 203.808C404.631 208.245 457.287 263.25 458.238 329.11C456.797 397.447 393.11 446.532 316.522 439.421C246.033 431.558 191.478 376.608 191.233 314.118C197.828 250.328 261.702 201.198 332.949 203.808Z" fill="#F4EFEB"/>
<path d="M192.232 314.176C198.74 251.523 261.124 202.977 331.26 204.756L332.919 204.808C404.088 209.225 456.284 263.812 457.238 329.099C455.813 396.192 393.733 444.731 318.391 438.58L316.609 438.424C246.56 430.602 192.507 376.036 192.232 314.176Z" stroke="black" stroke-opacity="0.02" stroke-width="2"/>
<path d="M275.384 158.416C412.096 229.059 466.716 383.062 410.282 513.847C346.96 647.452 178.552 689.328 34.5805 609.172C-96.7611 532.799 -155.155 377.265 -100.317 253.741C-30.9084 133.558 137.905 91.7552 275.384 158.416Z" fill="#F4EFEB"/>
<path d="M-99.4267 254.198C-30.3135 134.586 137.852 92.8546 274.925 159.305L276.518 160.134C411.609 230.913 465.356 383.665 409.37 513.433C346.342 646.396 178.64 688.231 35.0673 608.298L35.066 608.299C-95.8816 532.144 -153.982 377.165 -99.4267 254.198Z" stroke="black" stroke-opacity="0.02" stroke-width="2"/>
<path d="M284.9 181.9C408.841 256.145 449.35 402.871 386.732 521.083C317.413 641.492 155.507 669.996 25.3986 586.445C-93.0635 507.2 -137.024 358.816 -76.4328 247.262C-2.33185 139.723 159.952 111.312 284.9 181.9Z" fill="#F4EFEB"/>
<path d="M-75.5727 247.774C-2.09535 141.192 158.575 112.617 282.933 181.941L284.372 182.749C407.875 256.732 448.196 402.885 385.848 520.611C316.873 640.406 155.677 668.915 25.9538 585.613L25.9525 585.613C-92.1292 506.612 -135.838 358.797 -75.5727 247.774Z" stroke="black" stroke-opacity="0.02" stroke-width="2"/>
<path d="M241.527 183.048C362.26 235.53 419.217 364.679 380.467 480.583C336.078 599.33 196.291 645.544 68.7467 585.32C-47.8332 527.585 -108.094 397.348 -70.1938 287.786C-19.7164 180.214 120.42 134.038 241.527 183.048Z" fill="#F4EFEB"/>
<path d="M-69.2745 288.182C-19.2356 181.615 119.389 135.501 239.753 183.414L241.168 183.983C361.418 236.267 418.092 364.859 379.531 480.23C335.38 598.314 196.286 644.437 69.1572 584.409L69.1559 584.409C-47.0148 526.867 -106.941 397.166 -69.2745 288.182Z" stroke="black" stroke-opacity="0.02" stroke-width="2"/>
<path d="M175.93 185.293C291.521 204.834 373.123 307.162 370.449 419.29C363.749 535.227 257.658 608.016 134.307 583.107C20.8624 557.941 -63.8124 455.39 -60.2117 349.11C-45.471 241.765 60.9245 168.931 175.93 185.293Z" fill="#F4EFEB"/>
<path d="M-59.2245 349.274C-44.5405 242.548 61.3083 170.008 175.839 186.289L175.84 186.289C290.904 205.741 372.109 307.577 369.459 419.167C362.792 534.422 257.314 606.922 134.448 582.121C21.4586 557.056 -62.7745 454.959 -59.2245 349.274Z" stroke="black" stroke-opacity="0.02" stroke-width="2"/>
<path d="M174.57 198.045C281.404 216.105 356.73 311.696 354.141 416.621C347.826 525.118 249.678 593.434 135.676 570.365C30.8325 547.038 -47.3346 451.244 -43.8947 351.789C-30.1556 251.316 68.2743 182.958 174.57 198.045Z" fill="#F4EFEB"/>
<path d="M-42.9074 351.953C-29.2234 252.089 68.6691 184.037 174.479 199.041L174.48 199.041C280.776 217.011 355.717 312.101 353.151 416.499C346.868 524.325 249.32 592.337 135.818 569.38C31.4387 546.156 -46.2978 450.822 -42.9074 351.953Z" stroke="black" stroke-opacity="0.02" stroke-width="2"/>
<path d="M225.936 243.982C311.661 285.876 348.271 380.268 315.887 461.723C279.303 545.005 176.124 572.976 85.7388 525.3C3.22194 479.8 -35.7474 384.51 -4.21228 307.559C36.3808 232.486 139.812 204.555 225.936 243.982Z" fill="#F4EFEB"/>
<path d="M-3.31178 307.996C36.6876 234.084 138.199 206.088 223.512 243.986L225.525 244.894C310.783 286.574 347.131 380.403 314.967 461.33C278.664 543.95 176.201 571.876 86.2166 524.421C4.08154 479.132 -34.5797 384.382 -3.31178 307.996Z" stroke="black" stroke-opacity="0.02" stroke-width="2"/>
<path d="M212.896 265.319C286.099 301.094 317.405 381.609 289.806 451.051C258.624 522.049 170.56 545.842 93.3758 505.134C22.9093 466.287 -10.4109 385.006 16.4657 319.403C51.0757 255.408 139.354 231.649 212.896 265.319Z" fill="#F4EFEB"/>
<path d="M17.3662 319.84C51.4287 256.921 137.976 233.116 210.768 265.457L212.485 266.232C285.223 301.792 316.264 381.744 288.887 450.657C258.225 520.447 171.988 544.373 95.6388 505.185L93.8368 504.247C23.762 465.606 -9.2406 384.871 17.3662 319.84Z" stroke="black" stroke-opacity="0.02" stroke-width="2"/>
<path d="M209.108 279.707C273.634 311.241 301.229 382.211 276.901 443.421C249.415 506.002 171.791 526.975 103.756 491.093C41.6432 456.851 12.273 385.205 35.9635 327.379C66.4707 270.97 144.285 250.027 209.108 279.707Z" fill="#F4EFEB"/>
<path d="M36.8642 327.815C66.8562 272.423 143.069 251.45 207.185 279.936L208.698 280.619C272.757 311.939 300.088 382.346 275.981 443.027C248.987 504.467 173.056 525.55 105.804 491.032L104.218 490.206C42.496 456.17 13.4431 385.07 36.8642 327.815Z" stroke="black" stroke-opacity="0.02" stroke-width="2"/>
<path d="M217.061 301.441C281.586 332.975 309.181 403.945 284.853 465.155C257.368 527.737 179.743 548.71 111.709 512.827C49.5954 478.585 20.2251 406.939 43.9156 349.113C74.4228 292.704 152.237 271.762 217.061 301.441Z" fill="#F4EFEB"/>
<path d="M44.8164 349.55C74.8083 294.157 151.022 273.184 215.137 301.67L216.65 302.353C280.709 333.673 308.04 404.08 283.934 464.762C256.939 526.201 181.008 547.284 113.757 512.766L112.17 511.94C50.4481 477.904 21.3952 406.804 44.8164 349.55Z" stroke="black" stroke-opacity="0.02" stroke-width="2"/>
<path d="M543.546 231.315C680.259 301.957 734.879 455.961 678.444 586.745C615.122 720.35 446.715 762.226 302.743 682.071C171.401 605.698 113.007 450.164 167.845 326.64C237.254 206.456 406.067 164.654 543.546 231.315Z" fill="#F4EFEB"/>
<path d="M168.735 327.097C237.849 207.485 406.014 165.753 543.087 232.204L544.68 233.033C679.771 303.811 733.518 456.563 677.532 586.331C614.504 719.295 446.802 761.13 303.229 681.197L303.228 681.197C172.281 605.043 114.18 450.064 168.735 327.097Z" stroke="black" stroke-opacity="0.02" stroke-width="2"/>
<path d="M553.062 254.798C677.003 329.044 717.512 475.769 654.894 593.981C585.575 714.39 423.67 742.895 293.561 659.344C175.099 580.099 131.138 431.715 191.729 320.161C265.83 212.621 428.114 184.211 553.062 254.798Z" fill="#F4EFEB"/>
<path d="M192.589 320.673C266.067 214.091 426.737 185.516 551.095 254.84L552.534 255.648C676.037 329.631 716.359 475.784 654.01 593.509C585.035 713.304 423.839 741.814 294.116 658.511L294.115 658.512C176.033 579.511 132.324 431.695 192.589 320.673Z" stroke="black" stroke-opacity="0.02" stroke-width="2"/>
<path d="M509.689 255.947C630.422 308.428 687.379 437.578 648.629 553.482C604.24 672.228 464.453 718.443 336.909 658.219C220.329 600.484 160.068 470.247 197.968 360.684C248.446 253.112 388.582 206.937 509.689 255.947Z" fill="#F4EFEB"/>
<path d="M198.888 361.08C248.926 254.513 387.551 208.4 507.915 256.313L509.33 256.881C629.58 309.166 686.254 437.757 647.694 553.129C603.542 671.213 464.448 717.335 337.319 657.308L337.318 657.308C221.147 599.766 161.221 470.065 198.888 361.08Z" stroke="black" stroke-opacity="0.02" stroke-width="2"/>
<path d="M444.092 258.191C559.683 277.733 641.285 380.061 638.611 492.188C631.911 608.126 525.82 680.915 402.469 656.006C289.025 630.84 204.35 528.289 207.95 422.009C222.691 314.664 329.087 241.83 444.092 258.191Z" fill="#F4EFEB"/>
<path d="M208.938 422.173C223.622 315.447 329.47 242.907 444.001 259.188L444.002 259.188C559.066 278.64 640.271 380.476 637.621 492.066C630.954 607.321 525.476 679.821 402.61 655.02C289.621 629.955 205.388 527.858 208.938 422.173Z" stroke="black" stroke-opacity="0.02" stroke-width="2"/>
<path d="M442.732 270.944C549.566 289.004 624.892 384.595 622.303 489.52C615.988 598.017 517.84 666.333 403.838 643.265C298.995 619.937 220.827 524.143 224.267 424.688C238.007 324.216 336.436 255.857 442.732 270.944Z" fill="#F4EFEB"/>
<path d="M225.255 424.852C238.939 324.989 336.831 256.936 442.641 271.94L442.642 271.94C548.938 289.91 623.879 385 621.313 489.398C615.03 597.224 517.482 665.237 403.98 642.279C299.601 619.055 221.864 523.721 225.255 424.852Z" stroke="black" stroke-opacity="0.02" stroke-width="2"/>
<path d="M494.098 316.88C579.823 358.775 616.434 453.167 584.049 534.621C547.466 617.903 444.286 645.875 353.901 598.198C271.384 552.699 232.415 457.409 263.95 380.457C304.543 305.385 407.974 277.454 494.098 316.88Z" fill="#F4EFEB"/>
<path d="M264.85 380.895C304.85 306.983 406.361 278.987 491.674 316.884L493.687 317.792C578.945 359.472 615.293 453.302 583.129 534.229C546.826 616.848 444.363 644.774 354.379 597.32C272.244 552.031 233.582 457.281 264.85 380.895Z" stroke="black" stroke-opacity="0.02" stroke-width="2"/>
<path d="M481.058 338.218C554.262 373.993 585.568 454.507 557.968 523.949C526.786 594.947 438.722 618.741 361.538 578.033C291.071 539.185 257.751 457.904 284.628 392.301C319.238 328.306 407.517 304.547 481.058 338.218Z" fill="#F4EFEB"/>
<path d="M285.528 392.738C319.591 329.819 406.138 306.015 478.93 338.355L480.648 339.13C553.385 374.691 584.427 454.643 557.049 523.556C526.387 593.346 440.15 617.271 363.801 578.083L361.999 577.146C291.924 538.505 258.922 457.77 285.528 392.738Z" stroke="black" stroke-opacity="0.02" stroke-width="2"/>
<path d="M477.271 352.605C541.796 384.139 569.391 455.109 545.063 516.319C517.578 578.901 439.953 599.874 371.918 563.991C309.805 529.749 280.435 458.103 304.126 400.277C334.633 343.868 412.447 322.926 477.271 352.605Z" fill="#F4EFEB"/>
<path d="M305.026 400.714C335.018 345.322 411.232 324.348 475.347 352.834L476.86 353.517C540.919 384.837 568.25 455.245 544.144 515.926C517.149 577.365 441.218 598.449 373.967 563.93L372.38 563.104C310.658 529.068 281.605 457.969 305.026 400.714Z" stroke="black" stroke-opacity="0.02" stroke-width="2"/>
<path d="M351.296 563.313C351.32 693.535 244.732 794.439 109.169 802.837C-31.8019 807.154 -141.07 696.831 -136.213 557.456C-129.028 429.045 -22.796 324.709 105.914 317.932C238.178 323.406 347.562 434.063 351.296 563.313Z" fill="#F4EFEB"/>
<path d="M105.924 318.933C237.133 324.391 345.726 433.782 350.248 561.835L350.296 563.342C350.305 692.936 244.228 793.455 109.135 801.837C-31.2506 806.135 -140.04 696.297 -135.214 557.511C-128.059 429.633 -22.2657 325.705 105.924 318.933Z" stroke="black" stroke-opacity="0.02" stroke-width="2"/>
<path d="M335.563 579.593C326.938 701.614 220.336 789.082 92.7189 787.946C-39.6952 782.628 -134.783 671.996 -120.975 541.722C-105.713 421.877 0.782742 331.17 121.869 333.369C245.472 347.284 340.646 458.237 335.563 579.593Z" fill="#F4EFEB"/>
<path d="M121.808 334.368C244.863 348.249 339.608 458.727 334.565 579.523L334.46 580.944C325.155 701.61 219.417 788.061 92.7566 786.947C-39.0732 781.651 -133.718 671.536 -119.983 541.848C-104.789 422.533 1.2411 332.2 121.808 334.368Z" stroke="black" stroke-opacity="0.02" stroke-width="2"/>
<path d="M315.588 547.435C324.003 658.587 239.502 751.589 124.298 767.499C4.21409 780.275 -96.1927 693.152 -101.03 573.871C-103.174 463.8 -19.198 367.891 90.2594 353.806C203.54 349.95 304.067 437.351 315.588 547.435Z" fill="#F4EFEB"/>
<path d="M90.3456 354.804C202.648 351.008 302.348 437.323 314.455 546.256L314.593 547.539C322.946 658.066 238.925 750.647 124.187 766.505C4.68599 779.216 -95.2054 692.541 -100.03 573.852C-102.163 464.313 -18.5942 368.843 90.3456 354.804Z" stroke="black" stroke-opacity="0.02" stroke-width="2"/>
<path d="M284.947 498.996C319.026 593.482 268.054 694.588 171.854 736.15C70.6629 776.166 -37.504 724.7 -70.4334 622.294C-98.8055 527.236 -48.9897 423.733 42.6595 385.14C140.092 354.508 248.43 406.185 284.947 498.996Z" fill="#F4EFEB"/>
<path d="M43.0075 386.079C139.177 355.871 246.018 406.264 283.153 497.206L284.006 499.335C317.879 593.251 267.247 693.844 171.461 735.23C70.8193 775.011 -36.7175 723.84 -69.4745 622.008C-97.694 527.461 -48.1539 424.49 43.0075 386.079Z" stroke="black" stroke-opacity="0.02" stroke-width="2"/>
<path d="M273.545 502.928C305.042 590.256 257.03 684.027 166.972 722.853C72.2547 760.267 -28.6413 713.034 -59.0348 618.372C-85.1966 530.493 -38.2564 434.508 47.5378 398.447C138.707 369.732 239.762 417.161 273.545 502.928Z" fill="#F4EFEB"/>
<path d="M47.8865 399.385C137.852 371.077 237.467 417.315 271.815 501.303L272.614 503.295C303.882 590.033 256.225 683.281 166.582 721.932C72.4017 759.119 -27.8582 712.163 -58.076 618.086C-84.0829 530.728 -37.4301 435.269 47.8865 399.385Z" stroke="black" stroke-opacity="0.02" stroke-width="2"/>
<path d="M257.116 559.392C259.167 640.114 195.209 704.315 111.989 711.623C25.3809 716.485 -43.5275 649.792 -42.7196 563.321C-40.3093 483.61 23.3759 417.287 102.407 411.09C183.815 412.432 252.799 479.33 257.116 559.392Z" fill="#F4EFEB"/>
<path d="M102.442 412.09C182.672 413.44 250.758 478.891 256.005 557.584L256.117 559.446C258.137 639.548 194.672 703.346 111.928 710.625C25.9135 715.451 -42.5108 649.24 -41.7197 563.351C-39.3253 484.167 23.9375 418.268 102.442 412.09Z" stroke="black" stroke-opacity="0.02" stroke-width="2"/>
<path d="M233.321 557.882C235.072 626.813 180.551 681.634 109.608 687.871C35.7767 692.02 -22.9687 635.066 -22.2832 561.226C-20.2314 493.158 34.0566 436.526 101.429 431.237C170.827 432.386 229.638 489.515 233.321 557.882Z" fill="#F4EFEB"/>
<path d="M101.464 432.237C169.777 433.396 227.755 489.227 232.226 556.348L232.322 557.936C234.042 626.255 180.001 680.675 109.525 686.874C36.2989 690.973 -21.9527 634.508 -21.2838 561.256C-19.2477 493.714 34.6198 437.507 101.464 432.237Z" stroke="black" stroke-opacity="0.02" stroke-width="2"/>
<path d="M219.468 560.625C221.011 621.385 172.954 669.707 110.421 675.205C45.3413 678.862 -6.44023 628.66 -5.83599 563.573C-4.0274 503.574 43.8251 453.655 103.211 448.993C164.382 450.006 216.221 500.362 219.468 560.625Z" fill="#F4EFEB"/>
<path d="M103.246 449.993C163.396 451.017 214.448 500.18 218.385 559.28L218.468 560.651C219.996 620.805 172.425 668.737 110.36 674.206C45.8758 677.827 -5.42413 628.109 -4.83662 563.603C-3.04387 504.13 44.3883 454.636 103.246 449.993Z" stroke="black" stroke-opacity="0.02" stroke-width="2"/>
<path d="M485.403 425.315C584.488 509.813 592.076 656.391 510.482 764.974C422.274 875.023 267.426 886.55 164.545 792.398C71.517 703.591 61.0872 555.057 139.466 452.739C229.472 355.669 384.649 344.271 485.403 425.315Z" fill="#F4EFEB"/>
<path d="M140.234 453.381C229.543 357.102 383.244 345.485 483.598 425.154L484.776 426.094C583.373 510.196 591 656.135 509.699 764.351C421.856 873.942 267.688 885.42 165.235 791.674C72.5932 703.235 62.1886 555.299 140.234 453.381Z" stroke="black" stroke-opacity="0.02" stroke-width="2"/>
<path d="M487.577 447.85C574.81 533.605 572.166 671.474 488.477 767.824C398.492 865.11 252.612 865.648 162.465 770.593C81.1954 681.202 81.3053 541.312 161.565 450.62C252.371 365.617 398.551 365.221 487.577 447.85Z" fill="#F4EFEB"/>
<path d="M162.286 451.314C252.711 366.706 398.251 366.328 486.876 448.564L487.889 449.566C573.649 534.959 570.793 671.51 487.741 767.147C398.152 864.002 252.953 864.539 163.205 769.921C82.2938 680.924 82.3866 541.632 162.286 451.314Z" stroke="black" stroke-opacity="0.02" stroke-width="2"/>
<path d="M450.147 442.175C540.171 507.912 556.082 632.559 493.417 730.529C425.199 830.177 293.752 850.02 199.867 776.285C114.737 706.477 96.2734 580.345 156.598 487.931C227.185 399.247 358.921 379.494 450.147 442.175Z" fill="#F4EFEB"/>
<path d="M157.412 488.513C227.411 400.613 357.785 380.784 448.515 442.272L449.581 443C539.088 508.379 554.99 632.387 492.588 729.968C424.7 829.131 293.929 848.872 200.502 775.512C115.783 706.042 97.3896 580.503 157.412 488.513Z" stroke="black" stroke-opacity="0.02" stroke-width="2"/>
<path d="M393.41 434.049C487.411 469.446 531.247 573.844 500.432 674.004C465.2 776.958 355.844 825.847 256.564 784.436C165.832 744.326 119.421 639.252 149.543 544.481C189.474 450.476 299.102 401.595 393.41 434.049Z" fill="#F4EFEB"/>
<path d="M150.483 544.825C189.917 452.056 297.596 403.481 390.884 434.252L393.057 434.985C486.49 470.168 530.158 573.975 499.476 673.706C464.423 776.09 355.7 824.691 256.969 783.521C166.725 743.627 120.54 639.108 150.483 544.825Z" stroke="black" stroke-opacity="0.02" stroke-width="2"/>
<path d="M389.002 445.275C475.881 477.99 516.058 575.375 487.148 669.088C454.138 765.428 352.721 811.532 260.978 773.218C177.143 736.086 134.585 638.079 162.833 549.405C200.157 461.409 301.827 415.311 389.002 445.275Z" fill="#F4EFEB"/>
<path d="M163.773 549.749C200.626 462.933 300.455 417.157 386.643 445.536L388.676 446.221C474.958 478.728 514.969 575.503 486.193 668.787C453.36 764.571 352.566 810.371 261.384 772.303C178.045 735.391 135.7 637.944 163.773 549.749Z" stroke="black" stroke-opacity="0.02" stroke-width="2"/>
<path d="M421.295 494.419C484.037 545.249 491.37 635.574 442.919 703.629C390.408 772.673 294.946 781.812 229.685 725.076C170.608 671.509 161.484 580.014 208.062 515.867C261.918 454.805 357.584 445.742 421.295 494.419Z" fill="#F4EFEB"/>
<path d="M208.846 516.49C261.943 456.33 355.926 447.01 419.198 494.091L420.688 495.214C482.938 545.665 490.284 635.354 442.119 703.027C389.966 771.597 295.186 780.68 230.357 724.335C171.67 671.122 162.595 580.224 208.846 516.49Z" stroke="black" stroke-opacity="0.02" stroke-width="2"/>
<path d="M404.703 511.543C458.28 554.948 464.602 632.005 423.304 690.025C378.542 748.887 297.087 756.615 241.356 708.17C190.903 662.432 183.052 584.375 222.755 529.687C268.669 477.637 350.301 469.973 404.703 511.543Z" fill="#F4EFEB"/>
<path d="M223.539 530.31C268.756 479.092 348.86 471.218 402.825 511.38L404.095 512.338C457.188 555.369 463.516 631.802 422.491 689.441C378.085 747.81 297.321 755.479 242.027 707.429C191.964 662.044 184.164 584.584 223.539 530.31Z" stroke="black" stroke-opacity="0.02" stroke-width="2"/>
<path d="M397.799 523.863C445.025 562.122 450.597 630.045 414.195 681.187C374.74 733.071 302.94 739.883 253.816 697.181C209.344 656.865 202.424 588.061 237.42 539.856C277.892 493.976 349.846 487.221 397.799 523.863Z" fill="#F4EFEB"/>
<path d="M238.204 540.479C278.021 495.383 348.556 488.451 396.073 523.813L397.169 524.64C443.925 562.518 449.516 629.818 413.396 680.585C374.299 731.993 303.181 738.753 254.487 696.44C210.405 656.477 203.536 588.27 238.204 540.479Z" stroke="black" stroke-opacity="0.02" stroke-width="2"/>
<path d="M279.725 519.042C378.81 603.54 386.398 750.118 304.804 858.701C216.596 968.75 61.7475 980.277 -41.1329 886.125C-134.161 797.318 -144.591 648.784 -66.2118 546.466C23.7937 449.396 178.971 437.998 279.725 519.042Z" fill="#F4EFEB"/>
<path d="M-65.4438 547.108C23.8652 450.829 177.566 439.212 277.92 518.881L279.098 519.821C377.695 603.923 385.322 749.862 304.021 858.078C216.178 967.669 62.0097 979.147 -40.4427 885.401C-133.085 796.962 -143.49 649.026 -65.4438 547.108Z" stroke="black" stroke-opacity="0.02" stroke-width="2"/>
<path d="M281.899 541.578C369.132 627.333 366.488 765.201 282.799 861.552C192.814 958.837 46.9338 959.376 -43.213 864.321C-124.483 774.929 -124.373 635.039 -44.1129 544.347C46.6931 459.344 192.873 458.948 281.899 541.578Z" fill="#F4EFEB"/>
<path d="M-43.3921 545.042C47.0324 460.434 192.573 460.056 281.198 542.291L282.211 543.293C367.971 628.686 365.115 765.238 282.063 860.874C192.474 957.73 47.2752 958.267 -42.4734 863.648C-123.384 774.651 -123.292 635.359 -43.3921 545.042Z" stroke="black" stroke-opacity="0.02" stroke-width="2"/>
<path d="M244.469 535.903C334.493 601.64 350.404 726.287 287.738 824.257C219.521 923.905 88.0742 943.748 -5.81092 870.013C-90.9416 800.205 -109.405 674.073 -49.0805 581.659C21.5067 492.975 153.243 473.221 244.469 535.903Z" fill="#F4EFEB"/>
<path d="M-48.2658 582.241C21.7329 494.341 152.106 474.511 242.837 535.999L243.903 536.727C333.41 602.107 349.312 726.114 286.91 823.696C219.022 922.859 88.2503 942.6 -5.17666 869.24C-89.8951 799.77 -108.289 674.231 -48.2658 582.241Z" stroke="black" stroke-opacity="0.02" stroke-width="2"/>
<path d="M187.732 527.776C281.733 563.173 325.57 667.571 294.754 767.731C259.522 870.686 150.166 919.574 50.8867 878.163C-39.8454 838.053 -86.2564 732.979 -56.1349 638.208C-16.2041 544.203 93.424 495.322 187.732 527.776Z" fill="#F4EFEB"/>
<path d="M-55.195 638.552C-15.7603 545.783 91.9187 497.208 185.206 527.98L187.38 528.712C280.812 563.895 324.48 667.702 293.798 767.433C258.745 869.818 150.022 918.418 51.2916 877.248C-38.9523 837.354 -85.1379 732.835 -55.195 638.552Z" stroke="black" stroke-opacity="0.02" stroke-width="2"/>
<path d="M183.324 539.002C270.202 571.717 310.38 669.102 281.469 762.815C248.46 859.155 147.042 905.259 55.3002 866.945C-28.535 829.813 -71.093 731.806 -42.8456 643.132C-5.5208 555.136 96.1483 509.038 183.324 539.002Z" fill="#F4EFEB"/>
<path d="M-41.9055 643.476C-5.05236 556.66 94.7766 510.884 180.964 539.263L182.998 539.948C269.28 572.455 309.29 669.23 280.515 762.514C247.682 858.298 146.888 904.098 55.7053 866.03C-27.6334 829.118 -69.9781 731.671 -41.9055 643.476Z" stroke="black" stroke-opacity="0.02" stroke-width="2"/>
<path d="M215.617 588.146C278.359 638.976 285.692 729.301 237.241 797.356C184.729 866.4 89.2683 875.539 24.0072 818.803C-35.0704 765.236 -44.1946 673.741 2.38367 609.594C56.2396 548.532 151.906 539.469 215.617 588.146Z" fill="#F4EFEB"/>
<path d="M3.1674 610.217C56.2649 550.057 150.247 540.737 213.52 587.818L215.01 588.941C277.26 639.392 284.606 729.081 236.441 796.754C184.288 865.324 89.5079 874.407 24.6793 818.062C-34.0079 764.849 -43.0834 673.951 3.1674 610.217Z" stroke="black" stroke-opacity="0.02" stroke-width="2"/>
<path d="M199.025 605.27C252.602 648.675 258.923 725.732 217.626 783.752C172.864 842.614 91.4083 850.342 35.6773 801.897C-14.7749 756.159 -22.6259 678.102 17.0763 623.414C62.9912 571.364 144.622 563.7 199.025 605.27Z" fill="#F4EFEB"/>
<path d="M17.8603 624.037C63.078 572.819 143.181 564.945 197.147 605.107L198.417 606.065C251.509 649.096 257.837 725.529 216.812 783.168C172.407 841.537 91.643 849.207 36.3488 801.156C-13.7139 755.771 -21.5139 678.311 17.8603 624.037Z" stroke="black" stroke-opacity="0.02" stroke-width="2"/>
<path d="M192.121 617.589C239.347 655.849 244.919 723.772 208.517 774.914C169.061 826.798 97.2618 833.61 48.1373 790.907C3.66588 750.591 -3.25445 681.788 31.7413 633.583C72.2133 587.703 144.168 580.947 192.121 617.589Z" fill="#F4EFEB"/>
<path d="M32.5255 634.205C72.3427 589.109 142.878 582.178 190.395 617.54L191.491 618.367C238.247 656.245 243.838 723.544 207.718 774.312C168.621 825.72 97.5025 832.479 48.8091 790.167C4.7271 750.204 -2.14245 681.996 32.5255 634.205Z" stroke="black" stroke-opacity="0.02" stroke-width="2"/>
<path d="M710.607 490.403C809.692 574.901 817.28 721.479 735.686 830.062C647.478 940.111 492.63 951.638 389.749 857.485C296.721 768.678 286.291 620.145 364.671 517.826C454.676 420.757 609.853 409.359 710.607 490.403Z" fill="#F4EFEB"/>
<path d="M365.438 518.469C454.748 422.19 608.448 410.573 708.802 490.241L709.98 491.182C808.577 575.284 816.204 721.223 734.904 829.439C647.06 939.03 492.892 950.508 390.44 856.762C297.797 768.323 287.393 620.387 365.438 518.469Z" stroke="black" stroke-opacity="0.02" stroke-width="2"/>
<path d="M712.781 512.938C800.014 598.693 797.37 736.561 713.681 832.912C623.696 930.198 477.816 930.736 387.669 835.681C306.399 746.289 306.509 606.399 386.769 515.707C477.575 430.705 623.755 430.309 712.781 512.938Z" fill="#F4EFEB"/>
<path d="M387.49 516.402C477.915 431.794 623.455 431.416 712.08 513.652L713.093 514.654C798.853 600.047 795.997 736.598 712.945 832.235C623.356 929.09 478.158 929.627 388.409 835.009C307.498 746.012 307.591 606.719 387.49 516.402Z" stroke="black" stroke-opacity="0.02" stroke-width="2"/>
<path d="M675.352 507.263C765.376 573.001 781.286 697.647 718.621 795.617C650.404 895.266 518.957 915.108 425.072 841.373C339.941 771.566 321.478 645.433 381.802 553.019C452.39 464.336 584.125 444.582 675.352 507.263Z" fill="#F4EFEB"/>
<path d="M382.617 553.601C452.616 465.701 582.989 445.872 673.72 507.36L674.785 508.088C764.293 573.467 780.195 697.475 717.793 795.056C649.905 894.219 519.133 913.96 425.706 840.6C340.988 771.131 322.594 645.592 382.617 553.601Z" stroke="black" stroke-opacity="0.02" stroke-width="2"/>
<path d="M618.615 499.136C712.615 534.533 756.452 638.931 725.636 739.091C690.404 842.046 581.048 890.934 481.769 849.523C391.037 809.413 344.626 704.34 374.747 609.568C414.678 515.563 524.306 466.682 618.615 499.136Z" fill="#F4EFEB"/>
<path d="M375.687 609.912C415.122 517.144 522.801 468.568 616.089 499.34L618.262 500.072C711.695 535.255 755.363 639.062 724.681 738.794C689.628 841.178 580.905 889.778 482.174 848.608C391.93 808.714 345.744 704.195 375.687 609.912Z" stroke="black" stroke-opacity="0.02" stroke-width="2"/>
<path d="M614.206 510.363C701.085 543.078 741.262 640.463 712.352 734.176C679.342 830.516 577.925 876.62 486.182 838.305C402.347 801.174 359.789 703.167 388.037 614.493C425.362 526.497 527.031 480.399 614.206 510.363Z" fill="#F4EFEB"/>
<path d="M388.977 614.836C425.83 528.021 525.659 482.245 611.847 510.624L613.88 511.309C700.162 543.816 740.173 640.591 711.397 733.875C678.564 829.659 577.771 875.459 486.588 837.391C403.249 800.479 360.904 703.032 388.977 614.836Z" stroke="black" stroke-opacity="0.02" stroke-width="2"/>
<path d="M649.499 559.507C712.241 610.337 719.574 700.662 671.123 768.717C618.612 837.762 523.151 846.9 457.89 790.164C398.812 736.597 389.688 645.102 436.266 580.955C490.122 519.894 585.789 510.83 649.499 559.507Z" fill="#F4EFEB"/>
<path d="M437.05 581.578C490.147 521.418 584.13 512.098 647.403 559.179L648.892 560.302C711.142 610.753 718.488 700.442 670.323 768.115C618.17 836.685 523.39 845.768 458.562 789.423C399.874 736.21 390.799 645.312 437.05 581.578Z" stroke="black" stroke-opacity="0.02" stroke-width="2"/>
<path d="M629.907 576.631C683.484 620.035 689.806 697.093 648.508 755.113C603.746 813.974 522.291 821.703 466.56 773.257C416.107 727.52 408.256 649.463 447.959 594.775C493.874 542.725 575.505 535.061 629.907 576.631Z" fill="#F4EFEB"/>
<path d="M448.743 595.398C493.96 544.18 574.064 536.306 628.029 576.468L629.3 577.426C682.392 620.457 688.72 696.89 647.695 754.529C603.289 812.898 522.525 820.567 467.231 772.516C417.168 727.132 409.368 649.671 448.743 595.398Z" stroke="black" stroke-opacity="0.02" stroke-width="2"/>
<path d="M623.004 588.95C670.23 627.21 675.802 695.133 639.4 746.274C599.944 798.158 528.145 804.97 479.02 762.268C434.549 721.952 427.628 653.149 462.624 604.944C503.096 559.064 575.05 552.308 623.004 588.95Z" fill="#F4EFEB"/>
<path d="M463.408 605.566C503.225 560.47 573.761 553.538 621.278 588.901L622.374 589.728C669.129 627.606 674.721 694.905 638.6 745.673C599.504 797.08 528.385 803.84 479.692 761.528C435.61 721.565 428.74 653.357 463.408 605.566Z" stroke="black" stroke-opacity="0.02" stroke-width="2"/>
<path d="M329.241 513.028C459.002 523.974 550.134 643.802 546.53 786.099C538.382 933.701 418.801 1038.53 280.35 1021.71C153.031 1003.39 58.4478 883.646 63.0616 748.643C80.1969 610.961 200.121 506.038 329.241 513.028Z" fill="#F4EFEB"/>
<path d="M64.0598 748.718C81.0914 612.069 199.721 507.885 327.681 513.949L329.157 514.024C457.772 524.874 548.414 643.253 545.568 784.413L545.531 786.044C537.413 933.111 418.311 1037.45 280.493 1020.72C153.736 1002.48 59.4824 883.242 64.0598 748.718Z" stroke="black" stroke-opacity="0.02" stroke-width="2"/>
<path d="M344.074 530.832C464.899 550.121 542.641 668.832 530.24 802.026C513.246 939.879 394.609 1029.87 266.019 1004.47C147.948 978.437 66.9682 859.564 79.8531 733.28C104.634 605.355 223.598 515.298 344.074 530.832Z" fill="#F4EFEB"/>
<path d="M80.843 733.428C105.458 606.495 223.134 517.067 342.547 531.648L343.953 531.825C464.123 551.027 541.605 669.145 529.244 801.922C512.305 939.229 394.187 1028.76 266.228 1003.5C148.712 977.582 68.0264 859.236 80.843 733.428Z" stroke="black" stroke-opacity="0.02" stroke-width="2"/>
<path d="M310.265 548.986C421.766 549.561 506.975 645.655 512.654 767.321C514.779 893.819 419.098 991.349 299.814 986.352C189.945 979.316 101.794 883.527 97.4258 768.017C103.587 649.375 199.555 551.743 310.265 548.986Z" fill="#F4EFEB"/>
<path d="M98.4269 768.012C104.587 649.88 200.144 552.747 310.253 549.987L310.253 549.986C421.108 550.558 505.992 646.112 511.654 767.371C513.756 893.329 418.512 990.323 299.864 985.352L299.863 985.353C190.571 978.342 102.796 883.033 98.4269 768.012Z" stroke="black" stroke-opacity="0.02" stroke-width="2"/>
<path d="M259.293 576.907C356.453 549.274 452.698 611.031 485.616 715.009C516.553 824.071 455.718 932.71 350.768 958.475C253.542 980.099 154.806 919.348 124.445 820.373C102.526 716.028 163.587 607.228 259.293 576.907Z" fill="#F4EFEB"/>
<path d="M125.405 820.09C103.701 716.642 163.94 608.859 258.453 578.225L259.538 577.877C356.085 550.419 451.874 611.756 484.669 715.336C515.44 823.864 454.91 931.865 350.579 957.491C253.9 978.993 155.642 918.591 125.405 820.09Z" stroke="black" stroke-opacity="0.02" stroke-width="2"/>
<path d="M262.204 589.147C352.003 563.608 441.201 621.655 471.936 718.987C500.851 821.068 444.875 922.469 347.866 946.238C257.989 966.159 166.491 909.045 138.135 816.398C117.573 718.756 173.758 617.205 262.204 589.147Z" fill="#F4EFEB"/>
<path d="M139.095 816.115C118.82 719.713 173.724 619.566 260.423 590.775L262.478 590.108C351.644 564.767 440.375 622.378 470.987 719.311C499.743 820.871 444.057 921.628 347.678 945.255C258.357 965.052 167.33 908.298 139.095 816.115Z" stroke="black" stroke-opacity="0.02" stroke-width="2"/>
<path d="M317.017 611.063C397.632 615.723 455.957 687.933 455.89 775.468C453.086 866.336 380.544 932.689 294.451 924.559C215.237 915.326 154.774 843.221 155.578 760.154C164.105 675.241 236.858 608.826 317.017 611.063Z" fill="#F4EFEB"/>
<path d="M156.578 760.202C165.014 676.454 236.283 610.874 315.123 612.024L316.986 612.063C396.948 616.701 454.953 688.356 454.888 775.464C452.089 865.776 380.028 931.624 294.569 923.566C215.913 914.398 155.798 842.782 156.578 760.202Z" stroke="black" stroke-opacity="0.02" stroke-width="2"/>
<path d="M313.41 635.79C382.25 639.769 432.062 701.332 432.012 775.954C429.625 853.417 367.686 909.976 294.169 903.038C226.524 895.16 174.887 833.687 175.567 762.874C182.841 690.488 244.961 633.876 313.41 635.79Z" fill="#F4EFEB"/>
<path d="M176.567 762.923C183.759 691.604 244.549 635.771 311.79 636.756L313.38 636.789C381.568 640.747 431.057 701.756 431.01 775.95C428.629 852.855 367.172 908.911 294.287 902.045C227.2 894.232 175.912 833.247 176.567 762.923Z" stroke="black" stroke-opacity="0.02" stroke-width="2"/>
<path d="M314.921 650.49C375.601 653.997 419.507 708.263 419.463 774.039C417.359 842.319 362.763 892.173 297.96 886.058C238.335 879.114 192.819 824.928 193.418 762.51C199.83 698.704 254.586 648.803 314.921 650.49Z" fill="#F4EFEB"/>
<path d="M194.418 762.557C200.804 699.269 255.117 649.836 314.861 651.49L314.861 651.489C374.896 654.959 418.493 708.663 418.463 774.01C416.376 841.745 362.256 891.108 298.078 885.065C239.01 878.185 193.844 824.488 194.418 762.557Z" stroke="black" stroke-opacity="0.02" stroke-width="2"/>
<path d="M-127.676 561.193C2.08475 572.139 93.2165 691.967 89.6126 834.265C81.4647 981.866 -38.1165 1086.7 -176.567 1069.88C-303.887 1051.56 -398.47 931.811 -393.856 796.808C-376.721 659.126 -256.797 554.203 -127.676 561.193Z" fill="#F4EFEB"/>
<path d="M-392.858 796.883C-375.826 660.234 -257.196 556.05 -129.237 562.114L-127.76 562.189C0.854066 573.039 91.4963 691.418 88.6507 832.578L88.6137 834.209C80.4953 981.276 -38.6064 1085.62 -176.425 1068.89C-303.181 1050.65 -397.435 931.407 -392.858 796.883Z" stroke="black" stroke-opacity="0.02" stroke-width="2"/>
<path d="M-112.844 578.997C7.98108 598.286 85.7234 716.997 73.3216 850.191C56.3279 988.044 -62.3086 1078.04 -190.899 1052.64C-308.97 1026.6 -389.95 907.729 -377.065 781.445C-352.284 653.52 -233.32 563.463 -112.844 578.997Z" fill="#F4EFEB"/>
<path d="M-376.075 781.593C-351.46 654.66 -233.784 565.232 -114.371 579.813L-112.965 579.99C7.20489 599.192 84.687 717.31 72.3263 850.087C55.3871 987.394 -62.7313 1076.92 -190.69 1051.66C-308.206 1025.75 -388.892 907.401 -376.075 781.593Z" stroke="black" stroke-opacity="0.02" stroke-width="2"/>
<path d="M-146.652 597.15C-35.1517 597.725 50.0571 693.819 55.7366 815.485C57.8614 941.984 -37.8194 1039.51 -157.103 1034.52C-266.972 1027.48 -355.124 931.691 -359.492 816.181C-353.33 697.54 -257.362 599.908 -146.652 597.15Z" fill="#F4EFEB"/>
<path d="M-358.491 816.177C-352.33 698.045 -256.774 600.911 -146.664 598.151L-146.664 598.15C-35.8092 598.722 49.0742 694.277 54.7362 815.535C56.8385 941.494 -38.4052 1038.49 -157.054 1033.52L-157.055 1033.52C-266.347 1026.51 -354.122 931.198 -358.491 816.177Z" stroke="black" stroke-opacity="0.02" stroke-width="2"/>
<path d="M-197.624 625.072C-100.464 597.439 -4.21952 659.196 28.6989 763.174C59.6354 872.236 -1.19989 980.875 -106.15 1006.64C-203.376 1028.26 -302.111 967.513 -332.473 868.538C-354.392 764.193 -293.33 655.393 -197.624 625.072Z" fill="#F4EFEB"/>
<path d="M-331.512 868.255C-353.217 764.807 -292.978 657.024 -198.465 626.39L-197.38 626.042C-100.833 598.584 -5.04337 659.921 27.751 763.501C58.5222 872.029 -2.00764 980.03 -106.338 1005.66C-203.018 1027.16 -301.275 966.756 -331.512 868.255Z" stroke="black" stroke-opacity="0.02" stroke-width="2"/>
<path d="M-194.713 637.313C-104.914 611.773 -15.717 669.82 15.0181 767.153C43.9337 869.233 -12.0422 970.635 -109.052 994.404C-198.928 1014.32 -290.427 957.21 -318.783 864.564C-339.344 766.922 -283.159 665.37 -194.713 637.313Z" fill="#F4EFEB"/>
<path d="M-317.822 864.281C-338.098 767.878 -283.193 667.731 -196.494 638.941L-194.439 638.274C-105.274 612.932 -16.5424 670.543 14.0697 767.477C42.8258 869.037 -12.8609 969.793 -109.24 993.42C-198.56 1013.22 -289.587 956.464 -317.822 864.281Z" stroke="black" stroke-opacity="0.02" stroke-width="2"/>
<path d="M-139.901 659.228C-59.285 663.887 -0.960476 736.098 -1.02797 823.633C-3.83187 914.501 -76.3735 980.853 -162.466 972.724C-241.681 963.491 -302.144 891.386 -301.339 808.319C-292.812 723.406 -220.059 656.991 -139.901 659.228Z" fill="#F4EFEB"/>
<path d="M-300.339 808.367C-291.904 724.618 -220.635 659.039 -141.795 660.188L-139.932 660.228C-59.9694 664.866 -1.96454 736.521 -2.02914 823.629C-4.82845 913.941 -76.8893 979.789 -162.349 971.731C-241.004 962.563 -301.119 890.947 -300.339 808.367Z" stroke="black" stroke-opacity="0.02" stroke-width="2"/>
<path d="M163.918 608.055C293.678 619.002 384.81 738.83 381.206 881.127C373.058 1028.73 253.477 1133.56 115.027 1116.74C-12.293 1098.42 -106.876 978.674 -102.262 843.671C-85.1268 705.989 34.7972 601.066 163.918 608.055Z" fill="#F4EFEB"/>
<path d="M-101.264 843.746C-84.2324 707.097 34.3975 602.913 162.357 608.977L163.834 609.052C292.448 619.902 383.09 738.281 380.244 879.44L380.207 881.072C372.089 1028.14 252.987 1132.48 115.169 1115.75C-11.5875 1097.51 -105.841 978.269 -101.264 843.746Z" stroke="black" stroke-opacity="0.02" stroke-width="2"/>
<path d="M178.75 625.86C299.575 645.149 377.318 763.86 364.916 897.054C347.922 1034.91 229.286 1124.9 100.695 1099.5C-17.3759 1073.46 -98.3555 954.592 -85.4706 828.308C-60.6896 700.383 58.2738 610.326 178.75 625.86Z" fill="#F4EFEB"/>
<path d="M-84.4807 828.456C-59.8662 701.523 57.8107 612.095 177.224 626.676L178.629 626.853C298.799 646.055 376.281 764.173 363.921 896.95C346.981 1034.26 228.863 1123.79 100.904 1098.53C-16.6115 1072.61 -97.2973 954.264 -84.4807 828.456Z" stroke="black" stroke-opacity="0.02" stroke-width="2"/>
<path d="M144.942 644.013C256.442 644.588 341.651 740.682 347.33 862.348C349.455 988.847 253.774 1086.38 134.491 1081.38C24.6213 1074.34 -63.53 978.555 -67.898 863.044C-61.7363 744.403 34.2316 646.771 144.942 644.013Z" fill="#F4EFEB"/>
<path d="M-66.8969 863.04C-60.7364 744.908 34.82 647.774 144.93 645.014L144.93 645.013C255.785 645.585 340.668 741.14 346.33 862.398C348.432 988.357 253.189 1085.35 134.54 1080.38L134.539 1080.38C25.247 1073.37 -62.5279 978.061 -66.8969 863.04Z" stroke="black" stroke-opacity="0.02" stroke-width="2"/>
<path d="M93.9694 671.935C191.129 644.302 287.374 706.06 320.293 810.037C351.229 919.099 290.394 1027.74 185.444 1053.5C88.2179 1075.13 -10.5175 1014.38 -40.8791 915.401C-62.798 811.056 -1.73636 702.256 93.9694 671.935Z" fill="#F4EFEB"/>
<path d="M-39.9187 915.118C-61.6232 811.67 -1.38412 703.888 93.129 673.253L94.2141 672.905C190.761 645.447 286.55 706.784 319.345 810.364C350.116 918.892 289.586 1026.89 185.256 1052.52C88.576 1074.02 -9.68139 1013.62 -39.9187 915.118Z" stroke="black" stroke-opacity="0.02" stroke-width="2"/>
<path d="M96.8807 684.175C186.68 658.636 275.877 716.683 306.612 814.016C335.527 916.096 279.552 1017.5 182.542 1041.27C92.6654 1061.19 1.1671 1004.07 -27.1891 911.426C-47.7504 813.785 8.43443 712.233 96.8807 684.175Z" fill="#F4EFEB"/>
<path d="M-26.2286 911.144C-46.5038 814.741 8.40064 714.594 95.0997 685.804L97.1543 685.137C186.32 659.795 275.051 717.406 305.663 814.339C334.42 915.9 278.733 1016.66 182.354 1040.28C93.0335 1060.08 2.00635 1003.33 -26.2286 911.144Z" stroke="black" stroke-opacity="0.02" stroke-width="2"/>
<path d="M151.693 706.092C232.309 710.751 290.633 782.962 290.566 870.496C287.762 961.364 215.22 1027.72 129.128 1019.59C49.9129 1010.35 -10.5501 938.25 -9.74538 855.183C-1.21841 770.27 71.5344 703.855 151.693 706.092Z" fill="#F4EFEB"/>
<path d="M-8.74548 855.231C-0.309919 771.482 70.959 705.902 149.799 707.052L151.662 707.092C231.624 711.73 289.629 783.384 289.565 870.492C286.765 960.804 214.704 1026.65 129.245 1018.59C50.5894 1009.43 -9.52553 937.81 -8.74548 855.231Z" stroke="black" stroke-opacity="0.02" stroke-width="2"/>
<path d="M148.087 730.818C216.927 734.797 266.738 796.361 266.688 870.983C264.301 948.446 202.362 1005 128.845 998.067C61.2007 990.189 9.56363 928.716 10.2435 857.903C17.5175 785.516 79.6371 728.905 148.087 730.818Z" fill="#F4EFEB"/>
<path d="M11.2434 857.951C18.4353 786.633 79.2252 730.8 146.466 731.784L148.057 731.818C216.244 735.776 265.734 796.785 265.687 870.978C263.305 947.884 201.848 1003.94 128.963 997.074C61.8763 989.261 10.5885 928.276 11.2434 857.951Z" stroke="black" stroke-opacity="0.02" stroke-width="2"/>
<path d="M149.597 745.518C210.277 749.025 254.183 803.29 254.139 869.066C252.036 937.347 197.439 987.201 132.636 981.086C73.0111 974.142 27.4953 919.956 28.0946 857.537C34.5063 793.732 89.262 743.831 149.597 745.518Z" fill="#F4EFEB"/>
<path d="M29.0945 857.585C35.4801 794.296 89.7936 744.864 149.538 746.517L149.538 746.516C209.572 749.986 253.169 803.69 253.139 869.038C251.052 936.773 196.933 986.136 132.755 980.092C73.6866 973.213 28.5199 919.515 29.0945 857.585Z" stroke="black" stroke-opacity="0.02" stroke-width="2"/>
<path d="M339.946 662.592C493.287 675.532 602.689 796.905 600.606 939.331C593.24 1087 453.682 1190.14 289.994 1171.19C139.423 1150.9 25.9474 1029.56 29.3341 894.45C47.4606 756.852 187.422 653.623 339.946 662.592Z" fill="#F4EFEB"/>
<path d="M30.3318 894.531C48.404 757.575 187.794 654.659 339.862 663.588L341.651 663.745C493.546 677.431 601.663 797.982 599.606 939.297C592.265 1086.26 453.343 1189.09 290.11 1170.2L290.108 1170.2C139.985 1149.96 26.993 1029.02 30.3318 894.531Z" stroke="black" stroke-opacity="0.02" stroke-width="2"/>
<path d="M357.726 680.645C500.646 701.802 594.226 821.852 581.619 955.029C563.662 1092.8 424.993 1181.1 272.813 1153.71C133.042 1125.83 35.6374 1005.57 48.9205 879.323C76.2211 751.611 215.275 663.253 357.726 680.645Z" fill="#F4EFEB"/>
<path d="M49.9111 879.467C77.002 752.878 214.502 664.986 355.924 681.436L357.563 681.632C499.978 702.714 593.166 822.306 580.622 954.931C562.747 1092 424.736 1180.04 273.008 1152.73L273.007 1152.73C133.68 1124.93 36.7254 1005.1 49.9111 879.467Z" stroke="black" stroke-opacity="0.02" stroke-width="2"/>
<path d="M318.095 698.306C449.722 700.583 551.771 798.101 560.331 920.01C564.769 1046.7 453.313 1142.9 312.431 1136.08C182.63 1127.36 77.1122 1030.1 70.194 914.373C75.6573 795.672 187.451 699.378 318.095 698.306Z" fill="#F4EFEB"/>
<path d="M71.1948 914.387C76.6377 796.783 187.058 701.124 316.596 699.323L318.121 699.306C449.226 701.587 550.8 798.697 559.332 920.042C563.736 1046.03 452.885 1141.88 312.461 1135.08L312.46 1135.08C183.111 1126.38 78.1078 1029.49 71.1948 914.387Z" stroke="black" stroke-opacity="0.02" stroke-width="2"/>
<path d="M258.352 725.486C372.621 699.3 487.173 762.605 527.617 867.219C565.799 976.893 495.645 1084.74 372.152 1108.94C257.714 1129.11 140.237 1066.77 102.887 967.208C75.4212 862.395 145.84 754.386 258.352 725.486Z" fill="#F4EFEB"/>
<path d="M103.862 966.982C76.5808 862.762 146.607 755.234 258.648 726.441L258.649 726.441C372.397 700.374 486.395 763.377 526.656 867.485C564.607 976.515 494.908 1083.87 371.905 1107.98C257.926 1128.06 141.03 1065.98 103.862 966.982Z" stroke="black" stroke-opacity="0.02" stroke-width="2"/>
<path d="M261.975 737.787C367.587 713.584 473.763 773.067 511.529 870.994C547.219 973.647 482.691 1074.33 368.54 1096.65C262.751 1115.22 153.873 1056.64 118.987 963.438C93.2257 865.357 157.999 764.531 261.975 737.787Z" fill="#F4EFEB"/>
<path d="M119.961 963.211C94.5805 866.468 157.786 766.928 259.879 739.373L262.272 738.742C367.353 714.661 472.982 773.829 510.568 871.261C546.031 973.281 481.941 1073.45 368.294 1095.68C262.974 1114.17 154.669 1055.85 119.961 963.211Z" stroke="black" stroke-opacity="0.02" stroke-width="2"/>
<path d="M327.011 760.567C422.244 766.462 492.193 839.656 493.449 927.302C491.526 1018.24 406.908 1083.58 305.157 1074.12C211.509 1063.67 139.037 990.549 138.719 907.387C147.489 822.494 232.356 757.104 327.011 760.567Z" fill="#F4EFEB"/>
<path d="M139.719 907.446C148.384 823.854 231.452 759.138 324.774 761.498L326.981 761.567C421.7 767.442 491.192 840.216 492.449 927.292C490.531 1017.51 406.557 1082.53 305.262 1073.13C212.048 1062.72 140.067 989.984 139.719 907.446Z" stroke="black" stroke-opacity="0.02" stroke-width="2"/>
<path d="M323.132 785.271C404.453 790.305 464.191 852.708 465.27 927.425C463.635 1004.95 391.383 1060.64 304.495 1052.57C224.526 1043.65 162.634 981.31 162.356 910.416C169.839 838.047 242.303 782.31 323.132 785.271Z" fill="#F4EFEB"/>
<path d="M163.356 910.475C170.744 839.31 241.59 784.193 321.218 786.212L323.101 786.271C403.911 791.286 463.189 853.269 464.27 927.414C462.653 1003.63 392.14 1058.73 306.605 1051.75L304.582 1051.57C225.053 1042.7 163.664 980.738 163.356 910.475Z" stroke="black" stroke-opacity="0.02" stroke-width="2"/>
<path d="M325.141 800.003C396.823 804.44 449.479 859.445 450.43 925.306C448.989 993.642 385.302 1042.73 308.714 1035.62C238.224 1027.75 183.67 972.803 183.425 910.313C190.02 846.523 253.894 797.393 325.141 800.003Z" fill="#F4EFEB"/>
<path d="M184.424 910.371C190.932 847.718 253.316 799.172 323.452 800.951L325.111 801.003C396.28 805.42 448.476 860.007 449.43 925.294C448.005 992.387 385.925 1040.93 310.583 1034.77L308.8 1034.62C238.752 1026.8 184.699 972.231 184.424 910.371Z" stroke="black" stroke-opacity="0.02" stroke-width="2"/>
<path d="M233.727 774.147C370.44 844.789 425.06 998.793 368.625 1129.58C305.303 1263.18 136.896 1305.06 -7.07574 1224.9C-138.417 1148.53 -196.812 992.996 -141.974 869.472C-72.5647 749.288 96.2486 707.486 233.727 774.147Z" fill="#F4EFEB"/>
<path d="M-141.083 869.929C-71.9698 750.317 96.196 708.585 233.268 775.036L234.862 775.865C369.953 846.643 423.699 999.395 367.714 1129.16C304.686 1262.13 136.983 1303.96 -6.58895 1224.03L-6.59027 1224.03C-137.538 1147.88 -195.638 992.896 -141.083 869.929Z" stroke="black" stroke-opacity="0.02" stroke-width="2"/>
<path d="M243.244 797.63C367.185 871.876 407.694 1018.6 345.075 1136.81C275.757 1257.22 113.851 1285.73 -16.2577 1202.18C-134.72 1122.93 -178.68 974.547 -118.089 862.993C-43.9881 755.454 118.296 727.043 243.244 797.63Z" fill="#F4EFEB"/>
<path d="M-117.229 863.505C-43.7516 756.923 116.918 728.348 241.277 797.672L242.715 798.48C366.218 872.463 406.54 1018.62 344.192 1136.34C275.216 1256.14 114.021 1284.65 -15.7024 1201.34L-15.7038 1201.34C-133.785 1122.34 -177.494 974.527 -117.229 863.505Z" stroke="black" stroke-opacity="0.02" stroke-width="2"/>
<path d="M199.87 798.779C320.604 851.26 377.561 980.41 338.811 1096.31C294.422 1215.06 154.634 1261.27 27.0905 1201.05C-89.4895 1143.32 -149.75 1013.08 -111.85 903.516C-61.3727 795.944 78.7637 749.769 199.87 798.779Z" fill="#F4EFEB"/>
<path d="M-110.931 903.912C-60.8919 797.346 77.7324 751.232 198.097 799.145L199.512 799.713C319.762 851.998 376.436 980.589 337.875 1095.96C293.724 1214.04 154.63 1260.17 27.501 1200.14L27.4997 1200.14C-88.6711 1142.6 -148.597 1012.9 -110.931 903.912Z" stroke="black" stroke-opacity="0.02" stroke-width="2"/>
<path d="M134.274 801.023C249.865 820.565 331.467 922.893 328.793 1035.02C322.093 1150.96 216.002 1223.75 92.6509 1198.84C-20.7938 1173.67 -105.469 1071.12 -101.868 964.841C-87.1272 857.496 19.2682 784.662 134.274 801.023Z" fill="#F4EFEB"/>
<path d="M-100.881 965.005C-86.1967 858.279 19.6521 785.739 134.183 802.02L134.184 802.02C249.247 821.472 330.453 923.308 327.803 1034.9C321.136 1150.15 215.657 1222.65 92.7916 1197.85C-20.1976 1172.79 -104.431 1070.69 -100.881 965.005Z" stroke="black" stroke-opacity="0.02" stroke-width="2"/>
<path d="M132.914 813.776C239.747 831.836 315.074 927.427 312.485 1032.35C306.169 1140.85 208.021 1209.17 94.0199 1186.1C-10.8237 1162.77 -88.9909 1066.97 -85.5509 967.52C-71.8118 867.048 26.618 798.689 132.914 813.776Z" fill="#F4EFEB"/>
<path d="M-84.5637 967.684C-70.8797 867.821 27.0129 799.768 132.823 814.772L132.824 814.772C239.12 832.742 314.061 927.832 311.495 1032.23C305.211 1140.06 207.664 1208.07 94.1615 1185.11C-10.2175 1161.89 -87.9541 1066.55 -84.5637 967.684Z" stroke="black" stroke-opacity="0.02" stroke-width="2"/>
<path d="M184.279 859.713C270.005 901.607 306.615 995.999 274.23 1077.45C237.647 1160.74 134.468 1188.71 44.0826 1141.03C-38.4343 1095.53 -77.4036 1000.24 -45.8685 923.29C-5.27542 848.217 98.156 820.286 184.279 859.713Z" fill="#F4EFEB"/>
<path d="M-44.968 923.727C-4.96865 849.815 96.5423 821.819 181.856 859.717L183.869 860.625C269.127 902.305 305.475 996.134 273.311 1077.06C237.007 1159.68 134.544 1187.61 44.5604 1140.15C-37.5747 1094.86 -76.2359 1000.11 -44.968 923.727Z" stroke="black" stroke-opacity="0.02" stroke-width="2"/>
<path d="M171.24 881.05C244.443 916.825 275.749 997.34 248.15 1066.78C216.968 1137.78 128.904 1161.57 51.7195 1120.87C-18.747 1082.02 -52.0671 1000.74 -25.1906 935.134C9.41941 871.138 97.6982 847.379 171.24 881.05Z" fill="#F4EFEB"/>
<path d="M-24.2901 935.571C9.77243 872.651 96.3193 848.847 169.111 881.188L170.829 881.962C243.567 917.523 274.608 997.475 247.23 1066.39C216.568 1136.18 130.332 1160.1 53.9825 1120.92L52.1806 1119.98C-17.8942 1081.34 -50.8968 1000.6 -24.2901 935.571Z" stroke="black" stroke-opacity="0.02" stroke-width="2"/>
<path d="M167.452 895.437C231.978 926.971 259.573 997.941 235.245 1059.15C207.759 1121.73 130.135 1142.71 62.1001 1106.82C-0.0130426 1072.58 -29.3833 1000.94 -5.69279 943.11C24.8144 886.701 102.628 865.758 167.452 895.437Z" fill="#F4EFEB"/>
<path d="M-4.79202 943.546C25.1999 888.154 101.413 867.181 165.529 895.667L167.041 896.35C231.101 927.669 258.431 998.077 234.325 1058.76C207.331 1120.2 131.4 1141.28 64.1482 1106.76L62.5613 1105.94C0.839721 1071.9 -28.2132 1000.8 -4.79202 943.546Z" stroke="black" stroke-opacity="0.02" stroke-width="2"/>
<path d="M501.89 847.046C638.603 917.689 693.223 1071.69 636.788 1202.48C573.466 1336.08 405.059 1377.96 261.087 1297.8C129.745 1221.43 71.351 1065.9 126.189 942.371C195.598 822.188 364.411 780.385 501.89 847.046Z" fill="#F4EFEB"/>
<path d="M127.08 942.828C196.193 823.217 364.359 781.485 501.431 847.935L503.024 848.764C638.115 919.543 691.862 1072.29 635.877 1202.06C572.848 1335.03 405.146 1376.86 261.574 1296.93L261.572 1296.93C130.625 1220.77 72.5242 1065.8 127.08 942.828Z" stroke="black" stroke-opacity="0.02" stroke-width="2"/>
<path d="M511.407 870.53C635.347 944.775 675.856 1091.5 613.238 1209.71C543.92 1330.12 382.014 1358.63 251.905 1275.08C133.443 1195.83 89.4823 1047.45 150.074 935.892C224.174 828.353 386.458 799.942 511.407 870.53Z" fill="#F4EFEB"/>
<path d="M150.934 936.404C224.411 829.822 385.081 801.247 509.439 870.571L510.878 871.379C634.381 945.362 674.703 1091.52 612.354 1209.24C543.379 1329.04 382.183 1357.55 252.46 1274.24L252.459 1274.24C134.377 1195.24 90.6681 1047.43 150.934 936.404Z" stroke="black" stroke-opacity="0.02" stroke-width="2"/>
<path d="M471.033 871.679C591.767 924.16 648.723 1053.31 609.973 1169.21C565.584 1287.96 425.797 1334.17 298.253 1273.95C181.673 1216.22 121.413 1085.98 159.313 976.416C209.79 868.844 349.926 822.668 471.033 871.679Z" fill="#F4EFEB"/>
<path d="M160.232 976.812C210.271 870.245 348.895 824.131 469.259 872.044L470.675 872.613C590.924 924.897 647.598 1053.49 609.038 1168.86C564.887 1286.94 425.792 1333.07 298.664 1273.04L298.662 1273.04C182.492 1215.5 122.566 1085.8 160.232 976.812Z" stroke="black" stroke-opacity="0.02" stroke-width="2"/>
<path d="M402.437 873.922C518.027 893.464 599.629 995.792 596.955 1107.92C590.255 1223.86 484.165 1296.65 360.814 1271.74C247.369 1246.57 162.694 1144.02 166.295 1037.74C181.035 930.395 287.431 857.561 402.437 873.922Z" fill="#F4EFEB"/>
<path d="M167.282 1037.9C181.966 931.178 287.815 858.638 402.345 874.918L402.346 874.919C517.41 894.371 598.615 996.207 595.966 1107.8C589.298 1223.05 483.82 1295.55 360.954 1270.75C247.965 1245.69 163.732 1143.59 167.282 1037.9Z" stroke="black" stroke-opacity="0.02" stroke-width="2"/>
<path d="M401.076 886.675C507.91 904.736 583.237 1000.33 580.647 1105.25C574.332 1213.75 476.184 1282.06 362.182 1259C257.339 1235.67 179.172 1139.87 182.612 1040.42C196.351 939.947 294.781 871.589 401.076 886.675Z" fill="#F4EFEB"/>
<path d="M183.599 1040.58C197.283 940.72 295.175 872.668 400.985 887.671L400.986 887.671C507.282 905.642 582.223 1000.73 579.658 1105.13C573.374 1212.96 475.826 1280.97 362.324 1258.01C257.945 1234.79 180.209 1139.45 183.599 1040.58Z" stroke="black" stroke-opacity="0.02" stroke-width="2"/>
<path d="M452.442 932.611C538.167 974.506 574.778 1068.9 542.393 1150.35C505.81 1233.63 402.63 1261.61 312.245 1213.93C229.728 1168.43 190.759 1073.14 222.294 996.189C262.887 921.116 366.319 893.185 452.442 932.611Z" fill="#F4EFEB"/>
<path d="M223.195 996.626C263.194 922.714 364.705 894.718 450.018 932.615L452.031 933.524C537.29 975.204 573.638 1069.03 541.473 1149.96C505.17 1232.58 402.707 1260.51 312.723 1213.05C230.588 1167.76 191.927 1073.01 223.195 996.626Z" stroke="black" stroke-opacity="0.02" stroke-width="2"/>
<path d="M439.403 953.949C512.606 989.724 543.912 1070.24 516.313 1139.68C485.131 1210.68 397.067 1234.47 319.883 1193.76C249.416 1154.92 216.096 1073.64 242.973 1008.03C277.582 944.038 365.861 920.279 439.403 953.949Z" fill="#F4EFEB"/>
<path d="M243.873 1008.47C277.936 945.55 364.482 921.746 437.275 954.087L438.992 954.861C511.73 990.422 542.771 1070.37 515.394 1139.29C484.731 1209.08 398.495 1233 322.146 1193.81L320.344 1192.88C250.269 1154.24 217.266 1073.5 243.873 1008.47Z" stroke="black" stroke-opacity="0.02" stroke-width="2"/>
<path d="M435.615 968.337C500.14 999.871 527.735 1070.84 503.408 1132.05C475.922 1194.63 398.298 1215.61 330.263 1179.72C268.15 1145.48 238.779 1073.83 262.47 1016.01C292.977 959.6 370.791 938.658 435.615 968.337Z" fill="#F4EFEB"/>
<path d="M263.371 1016.45C293.363 961.053 369.576 940.08 433.691 968.566L435.204 969.249C499.264 1000.57 526.594 1070.98 502.488 1131.66C475.493 1193.1 399.562 1214.18 332.311 1179.66L330.724 1178.84C269.002 1144.8 239.949 1073.7 263.371 1016.45Z" stroke="black" stroke-opacity="0.02" stroke-width="2"/>
</g>
<defs>
<clipPath id="clip0_2035_7344">
<rect width="430" height="920" rx="50" fill="white"/>
</clipPath>
</defs>
</svg>
